<?xml version="1.0" encoding="UTF-8" standalone="no"?>
<!-- Created with Inkscape (http://www.inkscape.org/) -->

<svg
   version="1.1"
   id="svg2"
   width="510.60818"
   height="512"
   viewBox="0 0 510.60818 512.00002"
   sodipodi:docname="bv-fapesp.svg"
   inkscape:version="1.2.2 (b0a8486541, 2022-12-01)"
   xmlns:inkscape="http://www.inkscape.org/namespaces/inkscape"
   xmlns:sodipodi="http://sodipodi.sourceforge.net/DTD/sodipodi-0.dtd"
   xmlns="http://www.w3.org/2000/svg"
   xmlns:svg="http://www.w3.org/2000/svg">
  <defs
     id="defs6" />
  <sodipodi:namedview
     id="namedview4"
     pagecolor="#ffffff"
     bordercolor="#999999"
     borderopacity="1"
     inkscape:showpageshadow="0"
     inkscape:pageopacity="0"
     inkscape:pagecheckerboard="0"
     inkscape:deskcolor="#d1d1d1"
     showgrid="false"
     inkscape:zoom="0.9983453"
     inkscape:cx="255.92348"
     inkscape:cy="256.42431"
     inkscape:window-width="1366"
     inkscape:window-height="768"
     inkscape:window-x="0"
     inkscape:window-y="0"
     inkscape:window-maximized="1"
     inkscape:current-layer="g8" />
  <g
     inkscape:groupmode="layer"
     inkscape:label="Image"
     id="g8"
     transform="translate(-1.8738399,-1.3880193)">
    <g
       id="g2306"
       transform="matrix(1.0003302,0,0,1.0003302,-6.1865592e-4,-4.5826026e-4)">
      <path
         style="fill:#d0d0d0;fill-opacity:1;stroke-width:1.52914"
         d="m 426.62088,448.69983 c 0,-0.31754 1.2042,-1.52173 2.676,-2.676 2.42532,-1.90206 2.47941,-1.84797 0.57735,0.57734 -1.99763,2.54717 -3.25335,3.3572 -3.25335,2.09866 z M 245.55616,295.48625 c -11.20002,-4.1036 -21.30349,-13.4227 -27.23308,-25.11883 l -3.48853,-6.88115 -0.42379,-129.59488 -0.42377,-129.5948912 h 6.15806 6.15808 l 0.18077,86.0143052 c 0.11865,56.452136 0.6614,83.649336 1.57924,79.133156 0.76917,-3.78463 7.78289,-43.00715 15.58606,-87.161158 14.06328,-79.5765447 14.22029,-80.2834891 17.91734,-80.6761424 8.44031,-0.89642057 8.61445,-3.0150718 -7.00049,85.1734534 -8.08111,45.639697 -14.47611,83.198087 -14.21111,83.463087 0.26502,0.26502 13.05378,-34.04011 28.41953,-76.233585 20.0686,-55.107229 27.92807,-78.545911 27.90348,-83.214258 -0.0339,-6.438986 0.0163,-6.4988582 5.42699,-6.4988582 7.37504,0 10.82574,3.4798889 8.50387,8.5758242 -1.0975,2.408752 -1.73195,14.544136 -1.73195,33.12766 v 29.326436 l 11.60373,-19.84124 c 15.41013,-26.34983 16.31385,-28.134738 17.40104,-34.368105 0.8596,-4.928352 1.3373,-5.332503 6.03492,-5.105682 2.80579,0.135482 6.10926,1.254131 7.34103,2.4859 1.96668,1.966679 1.91065,2.868326 -0.45984,7.399397 -2.07994,3.975731 -13.42031,59.498689 -12.33772,60.406035 0.5607,0.469972 36.89158,-43.659129 37.48278,-45.528249 2.80474,-8.86736 2.87872,-8.931518 8.18422,-7.097513 8.19896,2.834217 9.17823,5.533324 4.29327,11.833504 -2.31344,2.983695 -6.79513,12.650102 -9.95928,21.480904 -3.16415,8.830802 -7.36296,20.380373 -9.33068,25.665718 -4.2537,11.425452 -5.9091,12.233522 21.25266,-10.374286 10.60961,-8.830802 19.68123,-17.088175 20.15917,-18.349718 2.22937,-5.884636 4.90148,-7.749947 8.91573,-6.223733 2.15531,0.819454 4.71379,2.975445 5.68551,4.791097 1.53856,2.874852 1.08187,4.019836 -3.53626,8.865772 -5.02754,5.275549 -31.10339,48.70853 -29.94063,49.87034 1.34946,1.34838 48.2318,-27.177186 51.47313,-31.318827 l 3.60711,-4.609019 4.27824,3.046373 c 6.7109,4.778596 6.9379,8.874383 0.69595,12.557223 -4.64442,2.74027 -40.96424,44.00231 -39.77697,45.1896 0.25599,0.25599 12.09242,-3.75362 26.30317,-8.91023 16.09135,-5.839 27.42011,-10.85755 30.0326,-13.30419 l 4.19484,-3.92856 3.75171,3.52455 c 6.00074,5.63738 5.67393,9.6191 -1.0137,12.35202 -5.55756,2.27112 -47.79059,36.44844 -46.56004,37.67898 1.49636,1.49636 54.16124,-9.08901 58.85289,-11.82913 6.11949,-3.57403 8.70694,-1.88429 10.04943,6.56273 0.84132,5.29396 0.73691,5.42422 -5.09367,6.35659 -3.38657,0.54153 -16.54077,7.05018 -30.51445,15.09844 l -24.56182,14.14658 28.22776,0.41592 c 22.62894,0.3334 29.34212,-0.0497 33.84592,-1.93151 3.08997,-1.29107 5.71723,-2.16635 5.83832,-1.94505 5.01229,9.16021 3.93343,14.9424 -2.77951,14.89635 -5.23512,-0.0358 -160.52701,55.5924 -156.88508,56.19902 1.23071,0.205 38.70773,-6.08091 83.28226,-13.96869 44.57452,-7.88778 81.15526,-14.24397 81.29049,-14.12486 0.13524,0.11913 0.70288,2.66359 1.26145,5.65442 l 1.0155,5.43786 -86.54294,15.20556 -86.54294,15.20557 84.13465,0.39523 84.13466,0.39523 v 6.10363 6.10362 l -128.06574,-0.1078 c -107.14923,-0.0902 -129.04209,-0.46547 -134.04357,-2.298 z m 30.44412,-12.68026 c 7.86561,-3.58228 16.93135,-13.65882 19.00401,-21.12291 0.8923,-3.21339 1.62621,-15.03656 1.63089,-26.27371 l 0.009,-20.43121 -21.79029,0.65128 c -24.23834,0.72445 -29.37478,2.15657 -37.74095,10.52272 -13.61239,13.61241 -14.42215,33.74842 -1.91501,47.62078 7.26192,8.05459 15.63054,11.81875 26.27596,11.81875 4.87817,0 10.97909,-1.16993 14.52686,-2.7857 z M 439.29334,215.65891 417.56005,215.235 381.1859,236.11707 c -20.0058,11.48515 -36.96285,21.41652 -37.68236,22.06971 -0.71949,0.6532 25.42886,-8.55297 58.10744,-20.45815 l 59.41563,-21.6458 z m -64.0875,10.73489 18.16097,-10.31097 -7.89584,-0.46414 -7.89585,-0.46419 -16.76399,13.97322 c -9.22018,7.68526 -16.76398,14.29819 -16.76398,14.6954 0,0.3972 2.92449,-1.04192 6.49886,-3.19807 3.57437,-2.15616 14.67129,-8.56022 24.65983,-14.23125 z m -19.60942,-10.83479 c -1.57629,-0.30812 -4.51175,1.58107 -7.1281,4.58743 -8.33555,9.57811 -7.92798,11.08291 0.94857,3.50235 6.64044,-5.67094 8.18821,-7.69716 6.17953,-8.08978 z m -6.96184,-13.23847 c 1.54821,-1.86548 1.47538,-2.29371 -0.39012,-2.29371 -1.26154,0 -3.15034,1.03217 -4.19733,2.29371 -1.54821,1.86548 -1.47538,2.29372 0.39007,2.29372 1.26155,0 3.15034,-1.03217 4.19733,-2.29372 z m 29.81829,-3.18018 6.11658,-5.35907 -6.11658,0.96258 c -9.30113,1.46374 -10.48443,1.99911 -13.45138,6.08597 l -2.74739,3.78442 5.0411,-0.0575 c 3.52712,-0.0401 6.87806,-1.66687 11.15767,-5.41648 z m 53.58526,-5.50913 c 10.4504,-6.04065 18.83957,-11.13317 18.6426,-11.3167 -0.19697,-0.18349 -9.94333,1.3707 -21.65858,3.45379 -20.95953,3.72684 -21.43069,3.89872 -29.43601,10.73789 -4.47455,3.82271 -8.13555,7.21087 -8.13555,7.52922 0,0.31835 4.85703,0.57883 10.79341,0.57883 10.60634,0 11.12274,-0.19038 29.79413,-10.98303 z m -93.55457,-5.07298 c 0.51681,-1.34677 0.0206,-2.29371 -1.20195,-2.29371 -1.14516,0 -2.47819,1.03217 -2.9623,2.29371 -0.51681,1.34678 -0.0205,2.29372 1.20195,2.29372 1.14516,0 2.47819,-1.03217 2.9623,-2.29372 z m 28.1185,-8.03596 c 2.73336,-3.00927 4.73725,-5.70387 4.4531,-5.98804 -0.28414,-0.28418 -2.86461,0.24744 -5.73432,1.18127 -5.15003,1.67591 -12.09883,7.80029 -12.09883,10.66343 0,3.13644 8.65091,-0.65021 13.38005,-5.85666 z m 34.89766,-1.95199 c 3.67409,-1.38898 33.26838,-25.95513 32.36084,-26.86266 -0.33459,-0.3346 -9.15355,2.51915 -19.59772,6.34161 -19.00918,6.95719 -24.64493,10.84369 -30.6181,21.11474 -1.55162,2.66808 -1.15949,2.77165 6.51802,1.72142 4.49293,-0.61459 9.59457,-1.6564 11.33696,-2.31511 z m -75.20132,-2.37026 c 1.32523,-3.45348 1.19873,-3.70562 -1.36554,-2.72163 -1.26154,0.48411 -2.29371,1.83874 -2.29371,3.0103 0,2.89703 2.51285,2.6988 3.65925,-0.28867 z m -34.38344,-11.72203 c 2.7395,-2.32309 4.7331,-5.33285 4.45932,-6.7323 -0.3507,-1.79266 -2.72537,0.0887 -8.14086,6.44975 -7.45054,8.75145 -6.40039,8.83204 3.68154,0.28255 z m 61.67828,-1.94079 c 2.2775,-3.77055 3.90046,-6.85554 3.60658,-6.85554 -1.43712,0 -14.68455,8.04008 -14.70268,8.9233 -0.0124,0.55886 -0.43356,2.55577 -0.93793,4.43758 -1.66773,6.22232 7.262,1.39509 12.03403,-6.50534 z m -77.80022,-29.91336 20.85069,-36.055525 -0.0743,-22.051913 -0.0743,-22.051912 -4.27645,11.468574 C 288.37385,74.243919 256.134,162.30834 254.1515,167.91482 c -1.67221,4.72902 1.31925,-0.14923 21.64152,-35.29096 z m 8.51867,18.47039 c 12.11176,-14.33347 12.27494,-14.63883 12.25711,-22.93715 -0.0153,-7.03925 -0.29952,-7.91173 -1.74452,-5.352 -0.94954,1.68205 -7.50791,13.03594 -14.57419,25.23086 -14.03746,24.22577 -13.90754,24.32359 4.0616,3.05829 z m 29.1526,11.75365 c 0,-0.78327 -1.03217,-0.5675 -2.29372,0.47949 -1.26154,1.04699 -2.27183,3.02356 -2.24509,4.39237 0.0406,2.09083 0.40762,2.01418 2.29372,-0.47949 1.2348,-1.63254 2.24509,-3.60911 2.24509,-4.39237 z m 75.2215,-8.4241 c 3.20009,-3.13286 26.87257,-31.68256 26.55146,-32.02185 -0.55353,-0.58489 -34.92878,19.43731 -37.00705,21.55514 -0.96351,0.98184 -3.9493,5.73405 -6.6351,10.56048 l -4.88328,8.77533 10.45796,-3.91663 c 5.75188,-2.15415 10.93408,-4.38277 11.51601,-4.95247 z m -51.86962,-6.64622 2.33751,-7.30954 -5.2722,4.0213 c -5.90911,4.50709 -8.18405,7.9956 -8.18405,12.54983 0,2.96565 0.17351,2.9881 4.39063,0.56782 3.02587,-1.73662 5.11719,-4.79191 6.72811,-9.82941 z m -20.227,-4.8872 c 0.0366,-0.95456 0.66043,-4.83208 1.38623,-8.61671 l 1.31962,-6.88114 -5.18634,6.11657 c -3.5709,4.2114 -5.19341,7.6755 -5.20907,11.12154 -0.0225,4.9882 -0.0105,4.99657 3.80011,2.50013 2.10257,-1.37765 3.85283,-3.28583 3.88945,-4.24039 z m 43.53685,-2.64593 c 4.61273,-2.60328 9.64791,-6.55993 11.18927,-8.79257 3.83764,-5.55881 18.60616,-31.71021 18.60616,-32.946947 0,-0.550043 -7.2395,5.036537 -16.08778,12.414617 -13.64802,11.38033 -16.52677,14.57418 -18.98259,21.06041 -1.59214,4.20514 -3.37174,8.84991 -3.95468,10.32171 -1.43972,3.63503 -0.47585,3.42018 9.22962,-2.05722 z M 340.0991,124.23881 c 4.54631,-3.92501 8.76744,-9.1086 9.65043,-11.85086 0.86321,-2.68086 4.03229,-11.5834 7.04239,-19.783431 3.01008,-8.200031 5.22372,-14.909147 4.91919,-14.909147 -0.30454,0 -6.63989,7.25093 -14.07855,16.11318 -8.38141,9.985428 -13.89525,17.981388 -14.49883,21.025718 -2.36867,11.94711 -2.92398,16.38111 -2.05151,16.38111 0.51477,0 4.57235,-3.13946 9.01688,-6.97657 z m -23.46314,-11.50856 c 6.19095,-7.39442 6.68872,-8.74339 10.01538,-27.142296 1.92536,-10.648638 3.52934,-20.393327 3.56442,-21.65487 0.0349,-1.261544 -4.73839,5.963658 -10.6077,16.056003 -10.52064,18.09039 -10.67187,18.506398 -10.70132,29.436003 -0.0167,6.09746 0.25011,11.08629 0.5923,11.08629 0.34219,0 3.55382,-3.50151 7.13692,-7.78113 z M 1.8738399,265.77999 c 0,-2.9436 0.3146905,-4.1478 0.6993121,-2.676 0.3846216,1.4718 0.3846216,3.8802 0,5.352 -0.3846216,1.4718 -0.6993121,0.2676 -0.6993121,-2.676 z m 0.030859,-12.99772 c 0.016973,-3.36412 0.3301179,-4.56029 0.6958786,-2.65817 0.3657606,1.90211 0.351874,4.65457 -0.03086,6.11657 -0.3827323,1.462 -0.681991,-0.0943 -0.6650186,-3.4584 z"
         id="path3033" />
      <path
         style="fill:#a3be8c;fill-opacity:1;stroke-width:1.52914"
         d="M 230.26283,511.81927 C 145.85803,502.92185 70.660708,451.4766 31.558405,375.8783 20.041349,353.61183 14.156825,337.59237 8.2033022,312.29862 4.1964464,295.27535 3.9092341,291.84316 3.8626618,260.42798 3.8187705,230.82131 4.2419011,224.7815 7.3908975,210.06556 26.046117,122.8857 85.205952,52.912845 166.42282,21.966375 c 11.75896,-4.480577 35.68053,-11.553303 39.07588,-11.553303 0.47222,0 1.04569,58.317698 1.27436,129.594888 l 0.41578,129.59488 4.82702,9.23086 c 5.86218,11.21042 16.14514,21.0037 27.78173,26.45872 l 8.67811,4.06815 128.99263,0.42419 128.99266,0.42415 -1.02725,5.6924 c -0.56497,3.13081 -3.67759,13.67805 -6.91689,23.43829 -37.419,112.74673 -149.74903,184.97172 -268.25402,172.47967 z"
         id="path3029" />
    </g>
  </g>
</svg>
