<?xml version="1.0" encoding="UTF-8" standalone="no"?>
<svg
   height="512"
   viewBox="0 0 457.39639 512"
   width="457.39639"
   version="1.1"
   id="svg4"
   sodipodi:docname="google-scholar.svg"
   inkscape:version="1.2.2 (b0a8486541, 2022-12-01)"
   xmlns:inkscape="http://www.inkscape.org/namespaces/inkscape"
   xmlns:sodipodi="http://sodipodi.sourceforge.net/DTD/sodipodi-0.dtd"
   xmlns="http://www.w3.org/2000/svg"
   xmlns:svg="http://www.w3.org/2000/svg">
  <defs
     id="defs8" />
  <sodipodi:namedview
     id="namedview6"
     pagecolor="#ffffff"
     bordercolor="#999999"
     borderopacity="1"
     inkscape:showpageshadow="0"
     inkscape:pageopacity="0"
     inkscape:pagecheckerboard="0"
     inkscape:deskcolor="#d1d1d1"
     showgrid="false"
     inkscape:zoom="1.0703125"
     inkscape:cx="-249.92701"
     inkscape:cy="256"
     inkscape:window-width="1366"
     inkscape:window-height="768"
     inkscape:window-x="0"
     inkscape:window-y="0"
     inkscape:window-maximized="1"
     inkscape:current-layer="svg4" />
  <path
     d="M 431.0431,56.883244 V 20.57361 L 457.3964,0 H 172.20959 L 0,149.69815 h 114.2081 c -0.20712,2.83324 -0.29219,5.39524 -0.29219,8.30084 0,27.79294 9.6256,50.78213 28.89604,69.14783 19.27046,18.39602 43.00166,27.53046 71.10201,27.53046 6.56424,0 13.0008,-0.4906 19.25122,-1.3656 -3.8763,8.66776 -5.83276,16.69736 -5.83276,24.18972 0,13.167 5.99898,27.24052 17.9562,42.18906 -52.31169,3.56066 -90.74815,12.97686 -115.24935,28.21762 -14.04144,8.66544 -25.33361,19.60528 -33.853796,32.70814 -8.520758,13.1991 -12.770338,27.35366 -12.770338,42.61546 0,12.8643 2.749832,24.44816 8.292092,34.74978 5.54226,10.30174 12.770342,18.76062 21.749632,25.3121 8.95767,6.62376 19.29199,12.13452 30.95867,16.625 11.64572,4.45836 23.20856,7.62476 34.74808,9.41676 11.50276,1.78964 22.93959,2.66468 34.27437,2.66468 17.95852,0 35.93804,-2.31238 54.06282,-6.9161 18.0822,-4.64614 35.04028,-11.5219 50.89472,-20.65694 15.81248,-9.07316 28.68728,-21.44866 38.56254,-36.95772 9.85366,-15.57332 14.79276,-33.07332 14.79276,-52.44818 0,-14.68778 -2.99952,-28.05136 -9.00026,-40.18764 -5.9582,-12.09602 -13.25048,-22.0547 -21.93696,-29.79204 -8.66772,-7.75018 -17.33316,-14.87386 -26.02016,-21.29054 -8.66776,-6.45984 -16.00028,-13.00076 -21.95844,-19.75052 -5.97974,-6.72876 -8.97926,-13.4056 -8.97926,-19.9786 0,-6.56194 2.3123,-12.89578 6.9545,-19.0208 4.60602,-6.146 10.23168,-12.06392 16.8129,-17.74094 6.58342,-5.66592 13.16698,-11.95718 19.72886,-18.84402 6.56196,-6.86292 12.18764,-15.76985 16.81296,-26.67763 4.64622,-10.90542 6.93756,-23.25984 6.93756,-37.00904 0,-17.93694 -3.39618,-32.6142 -10.06312,-44.41798 -0.7916,-1.363244 -1.62344,-2.404504 -2.50016,-4.029664 l 75.8766,-62.229516 v 22.8247 c -9.8583,1.239586 -8.83228,7.12776 -8.83228,14.180266 V 242.61334 c 0,7.94442 6.50012,14.4451 14.44514,14.4451 h 5.31826 c 7.94446,0 14.44514,-6.50008 14.44514,-14.4451 V 71.057096 c 0,-7.035586 1.03654,-12.917346 -8.7489,-14.173852 z M 287.8964,353.52152 c 1.52132,1.0004 4.93852,3.70766 10.2912,8.05116 5.39932,4.32426 9.06266,7.59444 11.02088,9.88576 1.91802,2.21842 4.77228,5.55336 8.50156,10.06312 3.75024,4.4992 6.2912,8.40526 7.62472,11.64568 1.33354,3.30226 2.68804,7.28118 4.0618,11.9274 1.31424,4.59318 1.97982,9.30128 1.97982,14.08226 0,22.73084 -8.75116,39.57342 -26.20804,50.47886 -17.5,10.90778 -38.35536,16.36492 -62.58356,16.36492 -12.24944,0 -24.2708,-1.4572 -36.08328,-4.26014 -11.79097,-2.8222 -23.08257,-7.11494 -33.85381,-12.80246 -10.77128,-5.67696 -19.43672,-13.6045 -26.00096,-23.7288 -6.58352,-10.18682 -9.87527,-21.88618 -9.87527,-34.99948 0,-13.7603 3.72923,-25.71984 11.22977,-35.87452 7.45791,-10.16752 17.25032,-17.85586 29.3761,-23.0872 12.0832,-5.26108 24.33263,-8.98976 36.74889,-11.19768 12.41628,-2.26974 25.0624,-3.40668 37.9179,-3.40668 5.95814,0 10.58108,0.33488 13.87284,0.9281 0.60608,0.29224 4.04252,2.76034 10.31276,7.41768 6.272,4.6165 10.16754,7.46026 11.66728,8.51202 z m -4.47764,-134.10388 c -9.87532,11.81252 -23.64606,17.7176 -41.2715,17.7176 -15.81244,0 -29.7302,-6.35308 -41.68738,-19.0826 -11.99979,-12.69744 -20.56315,-27.10403 -25.79211,-43.24079 -5.25004,-16.14494 -7.87448,-31.97898 -7.87448,-47.53066 0,-18.25894 4.7939,-33.802464 14.37454,-46.634644 9.58302,-12.866036 23.33221,-19.313036 41.25047,-19.313036 15.83342,0 29.8323,6.717666 41.91606,20.209036 12.12578,13.44642 20.8128,28.550704 26.02252,45.290644 5.22902,16.71894 7.83128,32.7064 7.83128,47.97866 0,17.92876 -4.93676,32.81311 -14.76884,44.60579 z"
     stroke-width="0.0863826"
     id="path2"
     style="fill:#a3be8c;fill-opacity:1" />
</svg>
