<?xml version="1.0" encoding="UTF-8" standalone="no"?>
<svg
   height="512"
   viewBox="0 0 512 512"
   width="512"
   version="1.1"
   id="svg4"
   sodipodi:docname="instagram.svg"
   inkscape:version="1.2.2 (b0a8486541, 2022-12-01)"
   xmlns:inkscape="http://www.inkscape.org/namespaces/inkscape"
   xmlns:sodipodi="http://sodipodi.sourceforge.net/DTD/sodipodi-0.dtd"
   xmlns="http://www.w3.org/2000/svg"
   xmlns:svg="http://www.w3.org/2000/svg">
  <defs
     id="defs8" />
  <sodipodi:namedview
     id="namedview6"
     pagecolor="#ffffff"
     bordercolor="#999999"
     borderopacity="1"
     inkscape:showpageshadow="0"
     inkscape:pageopacity="0"
     inkscape:pagecheckerboard="0"
     inkscape:deskcolor="#d1d1d1"
     showgrid="false"
     inkscape:zoom="1.0703125"
     inkscape:cx="17.284672"
     inkscape:cy="256"
     inkscape:window-width="1366"
     inkscape:window-height="768"
     inkscape:window-x="0"
     inkscape:window-y="0"
     inkscape:window-maximized="1"
     inkscape:current-layer="svg4" />
  <path
     d="M 256,0 C 186.4073,0 177.73422,0.336042 150.49881,1.488186 123.15139,2.832354 104.65308,7.0728842 88.331042,13.409676 71.496938,20.0025 57.159144,28.755594 42.997374,42.997374 28.739592,57.159144 19.906488,71.496938 13.409676,88.331042 7.0728842,104.65308 2.832354,123.15139 1.488186,150.49881 0.256032,177.75022 0,186.4073 0,256 c 0,69.5927 0.336042,78.26578 1.488186,105.50118 1.344168,27.26742 5.5846982,45.84574 11.92149,62.16778 6.592824,16.8341 15.345918,31.1719 29.587698,45.33366 14.16177,14.25778 28.499564,23.0909 45.333668,29.5877 16.322038,6.25678 34.900358,10.57732 62.167768,11.9215 C 177.75022,511.74396 186.4073,512 256,512 c 69.5927,0 78.26578,-0.33604 105.50118,-1.48818 27.26742,-1.34418 45.84574,-5.68072 62.16778,-11.9215 16.8341,-6.59282 31.1719,-15.34592 45.33366,-29.5877 14.25778,-14.16176 23.0909,-28.41954 29.5877,-45.33366 6.25678,-16.32204 10.57732,-34.90036 11.9215,-62.16778 C 511.74396,334.24978 512,325.5927 512,256 512,186.4073 511.66396,177.73422 510.51182,150.49881 509.16764,123.2314 504.8311,104.55707 498.59032,88.331042 491.9975,71.496938 483.2444,57.159144 469.00262,42.997374 454.84086,28.739592 440.58308,19.906488 423.66896,13.409676 407.34692,7.0728842 388.7686,2.832354 361.50118,1.488186 334.24978,0.256032 325.5927,0 256,0 Z m 0,46.08576 c 68.34454,0 76.50556,0.336042 103.51694,1.488186 24.91512,1.168146 38.48482,5.328666 47.49394,8.849106 12.0175,4.656582 20.41854,10.161272 29.50768,19.154396 8.91312,8.913114 14.4178,17.410176 19.07438,29.427682 3.52044,9.00912 7.68096,22.57882 8.84912,47.49393 1.15214,27.01138 1.48818,35.1884 1.48818,103.51694 0,68.32854 -0.33604,76.50556 -1.5842,103.51694 -1.34416,24.91512 -5.50468,38.48482 -9.00912,47.49394 -4.8486,12.0175 -10.25728,20.41856 -19.1864,29.50768 -9.00912,8.91312 -17.5862,14.4178 -29.50768,19.0744 -8.89712,3.52044 -22.65884,7.68096 -47.66996,8.8491 -27.1554,1.15214 -35.1564,1.48818 -103.67696,1.48818 -68.52057,0 -76.50557,-0.33604 -103.69297,-1.5842 -24.91511,-1.34416 -38.66083,-5.50468 -47.66996,-9.00912 C 91.771472,450.50432 83.43443,445.09564 74.505314,436.16652 65.496188,427.1574 59.76747,418.58032 55.350918,406.65884 51.76647,397.76172 47.669958,384 46.341792,358.98888 c -0.912114,-26.83536 -1.344168,-35.1564 -1.344168,-103.35692 0,-68.16853 0.432054,-76.50557 1.344168,-103.67697 1.328166,-25.01112 5.424678,-38.74084 9.009126,-47.66995 4.416552,-12.177526 10.161272,-20.498566 19.154396,-29.507692 8.913114,-8.913114 17.266158,-14.673836 29.427676,-19.1864 9.00913,-3.504438 22.4188,-7.664958 47.42993,-8.913114 27.15539,-0.976122 35.15639,-1.328166 103.58094,-1.328166 z m 0,78.52182 c -72.66508,0 -131.42443,58.83935 -131.42443,131.42442 0,72.66508 58.83936,131.42444 131.42443,131.42444 72.66508,0 131.42442,-58.83936 131.42442,-131.42444 0,-72.66508 -58.83934,-131.42442 -131.42442,-131.42442 z m 0,216.7631 c -47.1739,0 -85.33867,-38.16478 -85.33867,-85.33868 0,-47.1739 38.16477,-85.33866 85.33867,-85.33866 47.1739,0 85.33866,38.16476 85.33866,85.33866 0,47.1739 -38.16476,85.33868 -85.33866,85.33868 z M 423.44494,119.35892 c 0,17.01013 -13.84174,30.73984 -30.77186,30.73984 -17.01012,0 -30.73984,-13.74572 -30.73984,-30.73984 0,-16.91411 13.82572,-30.675834 30.73984,-30.675834 16.91412,0 30.77186,13.761724 30.77186,30.675834 z"
     id="path2"
     style="fill:#a3be8c;fill-opacity:1;stroke-width:16.002" />
</svg>
