<?xml version="1.0" encoding="UTF-8" standalone="no"?>
<svg
   height="512"
   viewBox="0 0 508.16131 512"
   width="508.16132"
   version="1.1"
   id="svg4"
   sodipodi:docname="lattes.svg"
   inkscape:version="1.2.2 (b0a8486541, 2022-12-01)"
   xmlns:inkscape="http://www.inkscape.org/namespaces/inkscape"
   xmlns:sodipodi="http://sodipodi.sourceforge.net/DTD/sodipodi-0.dtd"
   xmlns="http://www.w3.org/2000/svg"
   xmlns:svg="http://www.w3.org/2000/svg">
  <defs
     id="defs8" />
  <sodipodi:namedview
     id="namedview6"
     pagecolor="#ffffff"
     bordercolor="#999999"
     borderopacity="1"
     inkscape:showpageshadow="0"
     inkscape:pageopacity="0"
     inkscape:pagecheckerboard="0"
     inkscape:deskcolor="#d1d1d1"
     showgrid="false"
     inkscape:zoom="1.0703125"
     inkscape:cx="-3.270073"
     inkscape:cy="256"
     inkscape:window-width="1366"
     inkscape:window-height="768"
     inkscape:window-x="0"
     inkscape:window-y="0"
     inkscape:window-maximized="1"
     inkscape:current-layer="svg4" />
  <path
     d="M 104.59546,467.83124 C 49.677068,355.30006 17.002861,287.34068 17.002861,285.65368 c 0,-2.75216 3.355921,-2.37006 36.352101,4.10024 58.032838,11.39424 89.038678,14.60896 140.723078,14.62824 68.38172,0.018 124.06602,-10.8115 167.33006,-32.57388 22.88822,-11.51378 36.6525,-21.72154 47.92542,-35.54768 13.88564,-17.04088 18.3464,-28.77636 18.50682,-48.52915 0.1406,-18.788 -2.39172,-28.69532 -13.26264,-51.68444 -4.30094,-9.08366 -8.07918,-19.51129 -8.43968,-23.16994 -0.56288,-5.88817 -0.081,-6.73285 4.26008,-7.23391 9.48494,-1.1241 56.30498,44.32857 73.54656,71.39637 29.71962,46.67941 32.13228,97.17733 6.97374,146.00925 -15.45368,30.00076 -32.53302,50.75808 -61.12858,74.35096 -47.52408,39.18472 -102.7645,66.4724 -179.04394,88.45646 C 209.7732,497.67278 143.52062,512 129.87593,512 c -2.89274,0 -8.32007,-9.48498 -25.23965,-44.18744 l -0.0403,0.018 z M 119.88927,286.35486 C 66.537124,279.44294 21.766916,273.43346 20.380364,272.99186 18.010295,272.22828 9.5303572,243.93608 4.7470632,220.90672 3.5418832,215.07864 1.7732171,199.64599 0.80898508,186.58575 -3.4936644,128.30971 9.1867972,88.019528 43.166492,51.789314 100.69823,-9.4990492 223.87874,-16.955226 362.85418,32.437872 c 24.39436,8.680552 34.08004,14.709314 29.6,18.465978 -3.31506,2.77315 -25.78152,2.732898 -64.60346,-0.12134 -60.68698,-4.460752 -106.88396,3.978934 -130.69618,23.912546 -36.25176,30.342614 -30.72409,96.857654 16.0364,192.808244 5.06448,10.38918 10.16748,20.55664 11.33414,22.6263 2.71366,4.76176 0.74432,9.184 -3.97892,8.96232 -2.0119,-0.0964 -47.30649,-5.82166 -100.65689,-12.7359 z M 298.87136,234.1507 c -42.5815,-7.65626 -80.86152,-34.0608 -93.22,-64.26225 -5.9284,-14.50862 -5.64666,-33.43776 0.6825,-44.77018 5.72774,-10.24856 20.51638,-22.10361 33.75978,-27.06776 22.04354,-8.258264 60.64614,-4.964184 88.77852,7.59674 26.70494,11.91688 50.37834,32.87486 59.17846,52.3669 11.29392,25.01736 1.88824,52.92985 -22.30604,66.25255 -16.03638,8.82116 -47.20208,13.42308 -66.8948,9.88574 h 0.0214 z"
     stroke-width="0.0800284"
     id="path2"
     style="fill:#a3be8c;fill-opacity:1" />
</svg>
