<?xml version="1.0" encoding="UTF-8" standalone="no"?>
<!-- Created with Inkscape (http://www.inkscape.org/) -->

<svg
   width="2148.6992"
   height="512"
   viewBox="0 0 568.51001 135.46667"
   version="1.1"
   id="svg8"
   inkscape:version="1.2.2 (b0a8486541, 2022-12-01)"
   sodipodi:docname="lpf_logo.svg"
   xmlns:inkscape="http://www.inkscape.org/namespaces/inkscape"
   xmlns:sodipodi="http://sodipodi.sourceforge.net/DTD/sodipodi-0.dtd"
   xmlns:xlink="http://www.w3.org/1999/xlink"
   xmlns="http://www.w3.org/2000/svg"
   xmlns:svg="http://www.w3.org/2000/svg"
   xmlns:rdf="http://www.w3.org/1999/02/22-rdf-syntax-ns#"
   xmlns:cc="http://creativecommons.org/ns#"
   xmlns:dc="http://purl.org/dc/elements/1.1/">
  <defs
     id="defs2">
    <linearGradient
       id="linearGradient993"
       inkscape:collect="always">
      <stop
         id="stop989"
         offset="0"
         style="stop-color:#245785;stop-opacity:1" />
      <stop
         id="stop991"
         offset="1"
         style="stop-color:#33c5a1;stop-opacity:1" />
    </linearGradient>
    <linearGradient
       inkscape:collect="always"
       xlink:href="#linearGradient993"
       id="linearGradient1860"
       gradientUnits="userSpaceOnUse"
       gradientTransform="matrix(1.2109092,0,0,1.2109092,63.426571,-219.4563)"
       x1="105.17616"
       y1="418.57458"
       x2="166.08279"
       y2="307.01761" />
  </defs>
  <sodipodi:namedview
     id="base"
     pagecolor="#ffffff"
     bordercolor="#666666"
     borderopacity="1.0"
     inkscape:pageopacity="0.0"
     inkscape:pageshadow="2"
     inkscape:zoom="0.30790089"
     inkscape:cx="1071.7735"
     inkscape:cy="256.57607"
     inkscape:document-units="px"
     inkscape:current-layer="layer1"
     showgrid="false"
     inkscape:window-width="1366"
     inkscape:window-height="768"
     inkscape:window-x="0"
     inkscape:window-y="0"
     inkscape:window-maximized="1"
     showguides="false"
     inkscape:showpageshadow="0"
     inkscape:pagecheckerboard="0"
     inkscape:deskcolor="#d1d1d1">
    <inkscape:grid
       type="xygrid"
       id="grid4412"
       originx="-138.66862"
       originy="-152.28602" />
  </sodipodi:namedview>
  <metadata
     id="metadata5">
    <rdf:RDF>
      <cc:Work
         rdf:about="">
        <dc:format>image/svg+xml</dc:format>
        <dc:type
           rdf:resource="http://purl.org/dc/dcmitype/StillImage" />
      </cc:Work>
    </rdf:RDF>
  </metadata>
  <g
     inkscape:label="Camada 1"
     inkscape:groupmode="layer"
     id="layer1"
     transform="translate(-138.66861,-152.28602)">
    <g
       id="g896">
      <g
         aria-label="tovoltaica"
         id="text1850"
         style="font-size:97.5107px;line-height:1.25;font-family:Quicksand;-inkscape-font-specification:'Quicksand, Normal';fill:#2e3440;stroke-width:1.12512">
        <path
           d="m 273.54818,191.76342 h 22.71999 q 1.17013,0 1.95021,0.87759 0.78009,0.78009 0.78009,1.95022 0,1.07262 -0.78009,1.8527 -0.78008,0.78009 -1.95021,0.78009 h -22.71999 q -1.17013,0 -2.04773,-0.78009 -0.78009,-0.8776 -0.78009,-1.95021 0,-1.17013 0.78009,-1.95022 0.8776,-0.78008 2.04773,-0.78008 z m 10.0436,-13.74901 q 1.26764,0 2.04772,0.8776 0.8776,0.87759 0.8776,2.04772 v 48.95037 q 0,2.7303 0.68257,4.09545 0.78009,1.36515 1.95022,1.8527 1.17012,0.39005 2.34025,0.39005 0.78009,0 1.36515,-0.19503 0.68258,-0.29253 1.46266,-0.29253 0.8776,0 1.46266,0.68258 0.68258,0.68257 0.68258,1.75519 0,1.36515 -1.56017,2.34026 -1.56017,0.87759 -3.70541,0.87759 -0.8776,0 -2.63279,-0.0975 -1.75519,-0.19502 -3.60789,-1.07262 -1.85271,-0.9751 -3.12035,-3.31536 -1.17012,-2.34026 -1.17012,-6.72824 v -49.2429 q 0,-1.17013 0.78008,-2.04772 0.8776,-0.8776 2.14524,-0.8776 z"
           id="path858" />
        <path
           d="m 355.74984,216.43362 q 0,7.41082 -3.21785,13.35897 -3.21785,5.85064 -8.77596,9.26352 -5.55811,3.31536 -12.67639,3.31536 -6.92326,0 -12.57888,-3.31536 -5.55811,-3.41288 -8.87348,-9.26352 -3.21785,-5.94815 -3.21785,-13.35897 0,-7.50832 3.21785,-13.35896 3.31537,-5.85064 8.87348,-9.26352 5.65562,-3.41287 12.57888,-3.41287 7.11828,0 12.67639,3.41287 5.55811,3.41288 8.77596,9.26352 3.21785,5.85064 3.21785,13.35896 z m -5.85064,0 q 0,-5.94815 -2.43777,-10.53115 -2.43777,-4.68051 -6.72824,-7.3133 -4.19296,-2.7303 -9.65355,-2.7303 -5.26558,0 -9.55605,2.7303 -4.29047,2.63279 -6.82575,7.3133 -2.43777,4.583 -2.43777,10.53115 0,5.94816 2.43777,10.53116 2.53528,4.583 6.82575,7.3133 4.29047,2.63279 9.55605,2.63279 5.46059,0 9.65355,-2.63279 4.29047,-2.7303 6.72824,-7.3133 2.43777,-4.583 2.43777,-10.53116 z"
           id="path860" />
        <path
           d="m 366.57362,190.49578 q 0.78009,0 1.56017,0.48755 0.78009,0.48756 1.17013,1.46266 l 17.06437,40.56445 -1.26764,0.78009 17.45442,-41.34454 q 0.78008,-1.95021 2.82781,-1.8527 0.97511,0 1.8527,0.68257 0.8776,0.58507 0.8776,1.7552 0,0.58506 -0.19502,0.9751 -0.0975,0.29254 -0.19502,0.68258 l -19.1121,44.85492 q -0.78009,1.75519 -2.63279,1.8527 -0.8776,0.0975 -1.75519,-0.39004 -0.78009,-0.58506 -1.17013,-1.46266 l -19.20961,-44.85492 q -0.0975,-0.19502 -0.19502,-0.58507 -0.0975,-0.39004 -0.0975,-0.78008 0,-1.07262 0.78009,-1.95021 0.78008,-0.8776 2.24274,-0.8776 z"
           id="path862" />
        <path
           d="m 465.25445,216.43362 q 0,7.41082 -3.21785,13.35897 -3.21785,5.85064 -8.77596,9.26352 -5.55811,3.31536 -12.67639,3.31536 -6.92326,0 -12.57888,-3.31536 -5.55811,-3.41288 -8.87348,-9.26352 -3.21785,-5.94815 -3.21785,-13.35897 0,-7.50832 3.21785,-13.35896 3.31537,-5.85064 8.87348,-9.26352 5.65562,-3.41287 12.57888,-3.41287 7.11828,0 12.67639,3.41287 5.55811,3.41288 8.77596,9.26352 3.21785,5.85064 3.21785,13.35896 z m -5.85064,0 q 0,-5.94815 -2.43777,-10.53115 -2.43776,-4.68051 -6.72823,-7.3133 -4.19296,-2.7303 -9.65356,-2.7303 -5.26558,0 -9.55605,2.7303 -4.29047,2.63279 -6.82575,7.3133 -2.43777,4.583 -2.43777,10.53115 0,5.94816 2.43777,10.53116 2.53528,4.583 6.82575,7.3133 4.29047,2.63279 9.55605,2.63279 5.4606,0 9.65356,-2.63279 4.29047,-2.7303 6.72823,-7.3133 2.43777,-4.583 2.43777,-10.53116 z"
           id="path864" />
        <path
           d="m 484.17155,238.47104 q 0,1.17013 -0.87759,2.04773 -0.8776,0.87759 -2.04773,0.87759 -1.26764,0 -2.14523,-0.87759 -0.78009,-0.8776 -0.78009,-2.04773 v -66.30727 q 0,-1.17013 0.8776,-2.04773 0.87759,-0.87759 2.04772,-0.87759 1.26764,0 2.04773,0.87759 0.87759,0.8776 0.87759,2.04773 z"
           id="path866" />
        <path
           d="m 496.65285,191.76342 h 22.71999 q 1.17013,0 1.95022,0.87759 0.78008,0.78009 0.78008,1.95022 0,1.07262 -0.78008,1.8527 -0.78009,0.78009 -1.95022,0.78009 h -22.71999 q -1.17013,0 -2.04772,-0.78009 -0.78009,-0.8776 -0.78009,-1.95021 0,-1.17013 0.78009,-1.95022 0.87759,-0.78008 2.04772,-0.78008 z m 10.0436,-13.74901 q 1.26764,0 2.04773,0.8776 0.87759,0.87759 0.87759,2.04772 v 48.95037 q 0,2.7303 0.68258,4.09545 0.78008,1.36515 1.95021,1.8527 1.17013,0.39005 2.34026,0.39005 0.78008,0 1.36515,-0.19503 0.68257,-0.29253 1.46266,-0.29253 0.8776,0 1.46266,0.68258 0.68257,0.68257 0.68257,1.75519 0,1.36515 -1.56017,2.34026 -1.56017,0.87759 -3.7054,0.87759 -0.8776,0 -2.63279,-0.0975 -1.75519,-0.19502 -3.6079,-1.07262 -1.8527,-0.9751 -3.12034,-3.31536 -1.17013,-2.34026 -1.17013,-6.72824 v -49.2429 q 0,-1.17013 0.78009,-2.04772 0.87759,-0.8776 2.14523,-0.8776 z"
           id="path868" />
        <path
           d="m 573.78387,191.5684 q 1.26764,0 2.04772,0.87759 0.8776,0.8776 0.8776,2.14524 v 43.87981 q 0,1.17013 -0.8776,2.04773 -0.87759,0.87759 -2.04772,0.87759 -1.26764,0 -2.14524,-0.87759 -0.78008,-0.8776 -0.78008,-2.04773 v -11.60377 l 1.65768,-0.78009 q 0,2.7303 -1.56017,5.55811 -1.46266,2.82781 -4.09545,5.26558 -2.63279,2.43777 -6.24069,3.99794 -3.51038,1.46266 -7.60583,1.46266 -6.63073,0 -11.89631,-3.41288 -5.16806,-3.41287 -8.19089,-9.36102 -2.92532,-5.94815 -2.92532,-13.35897 0,-7.60583 3.02283,-13.35896 3.02283,-5.85064 8.1909,-9.16601 5.16806,-3.31536 11.70128,-3.31536 4.19296,0 7.80085,1.46266 3.70541,1.46266 6.43571,3.99794 2.7303,2.53528 4.19296,5.85064 1.56017,3.21785 1.56017,6.72824 l -2.04772,-1.46266 v -12.38386 q 0,-1.26764 0.78008,-2.14524 0.8776,-0.87759 2.14524,-0.87759 z m -20.28223,45.34247 q 5.16807,0 9.16601,-2.63279 3.99794,-2.7303 6.24068,-7.41081 2.34026,-4.77803 2.34026,-10.62867 0,-5.75313 -2.34026,-10.33613 -2.24274,-4.583 -6.24068,-7.3133 -3.99794,-2.7303 -9.16601,-2.7303 -5.07055,0 -9.166,2.63279 -3.99794,2.63278 -6.3382,7.21579 -2.24274,4.583 -2.24274,10.53115 0,5.85064 2.24274,10.62867 2.34026,4.68051 6.3382,7.41081 3.99794,2.63279 9.166,2.63279 z"
           id="path870" />
        <path
           d="m 597.67409,238.47104 q 0,1.17013 -0.8776,2.04773 -0.87759,0.87759 -2.04772,0.87759 -1.26764,0 -2.14524,-0.87759 -0.78008,-0.8776 -0.78008,-2.04773 v -44.85492 q 0,-1.17013 0.78008,-2.04772 0.8776,-0.8776 2.14524,-0.8776 1.26764,0 2.04772,0.8776 0.8776,0.87759 0.8776,2.04772 z m -2.92532,-54.31346 q -2.04773,0 -3.12034,-0.87759 -0.97511,-0.97511 -0.97511,-2.7303 v -0.97511 q 0,-1.75519 1.07262,-2.63279 1.17013,-0.9751 3.12034,-0.9751 1.8527,0 2.82781,0.9751 1.07262,0.8776 1.07262,2.63279 v 0.97511 q 0,1.75519 -1.07262,2.7303 -0.97511,0.87759 -2.92532,0.87759 z"
           id="path872" />
        <path
           d="m 634.82572,190.39827 q 4.68051,0 8.58094,1.07262 3.90043,0.9751 6.24068,2.7303 2.43777,1.75519 2.43777,3.80291 0,0.97511 -0.68258,1.95022 -0.68257,0.87759 -1.8527,0.87759 -1.17013,0 -1.95021,-0.58506 -0.68258,-0.58507 -1.46266,-1.36515 -0.68258,-0.78009 -2.04773,-1.46266 -1.26764,-0.58507 -3.60789,-1.07262 -2.34026,-0.48755 -5.36309,-0.48755 -5.4606,0 -9.84858,2.7303 -4.38798,2.7303 -6.92326,7.41081 -2.53528,4.583 -2.53528,10.33613 0,5.85065 2.43777,10.53116 2.43777,4.68051 6.72824,7.41081 4.29047,2.63279 10.0436,2.63279 3.90043,0 6.04566,-0.68257 2.14524,-0.68258 3.70541,-1.56018 1.8527,-1.07261 2.63279,-2.04772 0.87759,-1.07262 2.24274,-1.07262 1.26764,0 1.85271,0.78009 0.68257,0.68257 0.68257,1.8527 0,1.56017 -2.34026,3.51039 -2.24274,1.8527 -6.24068,3.31536 -3.99794,1.36515 -9.16601,1.36515 -7.3133,0 -12.87141,-3.41288 -5.4606,-3.41287 -8.58094,-9.26351 -3.02283,-5.94815 -3.02283,-13.35897 0,-7.11828 3.12034,-12.96892 3.12034,-5.85064 8.67845,-9.36103 5.65562,-3.60789 13.06644,-3.60789 z"
           id="path874" />
        <path
           d="m 704.25332,191.5684 q 1.26764,0 2.04772,0.87759 0.8776,0.8776 0.8776,2.14524 v 43.87981 q 0,1.17013 -0.8776,2.04773 -0.87759,0.87759 -2.04772,0.87759 -1.26764,0 -2.14524,-0.87759 -0.78008,-0.8776 -0.78008,-2.04773 v -11.60377 l 1.65768,-0.78009 q 0,2.7303 -1.56017,5.55811 -1.46266,2.82781 -4.09545,5.26558 -2.63279,2.43777 -6.24068,3.99794 -3.51039,1.46266 -7.60584,1.46266 -6.63073,0 -11.8963,-3.41288 -5.16807,-3.41287 -8.1909,-9.36102 -2.92532,-5.94815 -2.92532,-13.35897 0,-7.60583 3.02283,-13.35896 3.02283,-5.85064 8.1909,-9.16601 5.16806,-3.31536 11.70128,-3.31536 4.19296,0 7.80086,1.46266 3.7054,1.46266 6.4357,3.99794 2.7303,2.53528 4.19296,5.85064 1.56017,3.21785 1.56017,6.72824 l -2.04772,-1.46266 v -12.38386 q 0,-1.26764 0.78008,-2.14524 0.8776,-0.87759 2.14524,-0.87759 z m -20.28222,45.34247 q 5.16806,0 9.166,-2.63279 3.99794,-2.7303 6.24069,-7.41081 2.34025,-4.77803 2.34025,-10.62867 0,-5.75313 -2.34025,-10.33613 -2.24275,-4.583 -6.24069,-7.3133 -3.99794,-2.7303 -9.166,-2.7303 -5.07056,0 -9.16601,2.63279 -3.99794,2.63278 -6.3382,7.21579 -2.24274,4.583 -2.24274,10.53115 0,5.85064 2.24274,10.62867 2.34026,4.68051 6.3382,7.41081 3.99794,2.63279 9.16601,2.63279 z"
           id="path876" />
      </g>
      <path
         inkscape:connector-curvature="0"
         id="path1852"
         d="m 225.80598,161.19009 c -0.0547,0.0305 -0.10783,0.0583 -0.16255,0.0891 l 1.80127,3.55024 1.9498,-0.98924 -1.7067,-3.36387 c -0.62205,0.23028 -1.24783,0.46651 -1.88171,0.71404 z m -6.18484,3.16535 c -0.55203,0.27533 -1.10587,0.55799 -1.66155,0.84931 l 1.79025,3.52842 2.62723,-1.33291 -1.78766,-3.52349 c -0.32243,0.15883 -0.64523,0.31733 -0.96827,0.47867 z m -1.95055,1.00577 c -0.84828,0.45019 -1.70195,0.92355 -2.56753,1.44929 l 1.72712,3.40401 2.62667,-1.33265 z m 3.21319,-1.63028 1.78626,3.52071 1.94923,-0.98897 -1.77719,-3.50283 c -0.65384,0.32885 -1.30625,0.65031 -1.9583,0.97109 z m 3.70427,-1.87655 c -0.22569,0.12057 -0.45182,0.24079 -0.67681,0.35716 l 7.07253,13.9398 1.92216,3.78856 c 0.19561,-0.17476 0.3933,-0.35448 0.58933,-0.52984 z m -9.76603,5.12823 c -0.81033,0.50069 -1.6314,1.04621 -2.46561,1.65161 l 1.55351,3.06188 2.62727,-1.33291 z m 13.17622,-6.6206 1.68914,3.32931 2.6267,-1.33272 -1.51387,-2.98379 c -0.92137,0.31055 -1.85514,0.63966 -2.80197,0.9872 z m -15.90959,8.47047 c -0.77005,0.56882 -1.55271,1.19088 -2.3498,1.87845 l 1.25145,2.4665 2.62664,-1.33265 z m 19.02574,-9.5645 1.49265,2.94201 2.62723,-1.33297 -1.27631,-2.51565 c -0.93545,0.28449 -1.88306,0.58589 -2.84357,0.90661 z m 3.16346,-1.00224 1.24941,2.46265 2.6267,-1.33269 -0.99009,-1.9515 c -0.95147,0.25874 -1.91043,0.52801 -2.88602,0.82154 z m -24.79463,12.66749 c -0.73192,0.64176 -1.47631,1.33936 -2.23622,2.10358 l 0.82304,1.62223 2.62724,-1.33294 z m 28.00506,-13.57572 0.95864,1.88955 2.62724,-1.33296 -0.66108,-1.30305 c -0.96371,0.23265 -1.93871,0.48158 -2.9248,0.74646 z m -30.48413,15.92673 c -0.69762,0.71155 -1.40681,1.47653 -2.13181,2.30815 l 0.27816,0.54797 2.62669,-1.33266 z m 33.73617,-16.75289 0.62626,1.23437 2.62724,-1.33295 -0.29125,-0.57425 c -0.97638,0.20862 -1.9658,0.43529 -2.9622,0.67283 z m 3.29535,-0.74221 0.25117,0.49499 1.80078,-0.91366 c -0.67957,0.1331 -1.36409,0.27365 -2.05191,0.41859 z m -39.39654,20.07104 c -0.26416,0.30649 -0.52941,0.6203 -0.79736,0.94411 l 1.0151,-0.51498 z m -1.44671,1.97948 3.29339,6.49112 1.94923,-0.98893 -3.29333,-6.49117 z m 2.24279,-1.13792 3.29333,6.49112 2.62669,-1.33268 -3.29332,-6.4911 z m 2.91968,-1.48133 3.2933,6.49116 2.62725,-1.33299 -3.29334,-6.49109 z m 2.92021,-1.4816 3.29333,6.49112 2.62667,-1.33269 -3.29331,-6.49109 z m 2.91965,-1.48134 3.29334,6.49117 2.62726,-1.333 -3.29336,-6.49108 z m 2.92021,-1.48159 3.29338,6.49112 2.62669,-1.33268 -3.29337,-6.49109 z m 2.91966,-1.48132 3.29333,6.49115 2.62729,-1.333 -3.29333,-6.49108 z m 2.92026,-1.48154 3.29332,6.49109 1.94922,-0.98897 -3.29332,-6.4911 z m 4.77457,-2.42241 3.29333,6.49109 1.9498,-0.98932 -3.29333,-6.49109 z m 2.24278,-1.13792 3.2933,6.49108 2.6267,-1.33272 -3.29332,-6.49109 z m 2.91966,-1.48133 3.29333,6.49108 2.62722,-1.33291 -3.29331,-6.49113 z m 2.9202,-1.4816 3.29333,6.49108 2.6267,-1.33264 -3.29333,-6.49113 z m 2.91967,-1.48133 3.29334,6.49115 2.62723,-1.33299 -3.29334,-6.49111 z m 2.91965,-1.48129 3.29333,6.49111 2.62725,-1.33299 -3.29334,-6.49111 z m 2.92023,-1.48164 3.29331,6.49116 2.62725,-1.33299 -3.29334,-6.49113 z m 2.91967,-1.4813 3.29334,6.49113 1.94978,-0.98928 -3.11806,-6.14569 c -0.4371,0.0769 -0.87401,0.15207 -1.31368,0.23199 z m -45.28126,23.49593 c -0.15254,0.19913 -0.30525,0.39692 -0.45937,0.60214 l 6.83269,13.46722 -0.54349,1.66298 -17.18037,8.71661 c -8.2e-4,0.2452 -6.2e-4,0.48253 -8.2e-4,0.7257 l 17.47447,-8.86585 1.66299,0.54349 2.18402,4.30469 1.10763,2.18304 c 0.14983,-0.20691 0.29982,-0.41544 0.45019,-0.61996 l -3.13361,-6.17637 0.5435,-1.66298 4.25785,-2.1603 11.03631,-5.59937 c 0.51125,-0.51718 1.01294,-1.01367 1.50498,-1.4884 l -12.83376,6.51133 -4.25786,2.16029 -1.66299,-0.54357 -2.18405,-4.30465 z m 48.78483,-24.37958 6.45415,12.72112 c 0.0976,-0.29634 0.18884,-0.59024 0.29169,-0.88833 l -1.50792,-2.97214 -4.553,-8.97378 c -0.22838,0.0363 -0.45597,0.0745 -0.68493,0.11344 z m 2.06833,-0.34228 2.64724,5.2177 1.94977,-0.98928 -2.32815,-4.58876 c -0.75511,0.11819 -1.51085,0.23808 -2.26886,0.36034 z m -52.20125,26.52763 c -0.46667,0.64574 -0.9413,1.3293 -1.4209,2.03169 l 2.10108,4.14122 1.94977,-0.98922 z m 54.81151,-26.94114 2.27975,4.49332 2.62726,-1.33299 -1.84514,-3.63674 c -1.02041,0.1585 -2.04085,0.317 -3.06187,0.47641 z m -56.44356,29.28275 c -0.12733,0.18796 -0.25277,0.36755 -0.38111,0.55967 -0.51934,0.8484 -0.98519,1.63496 -1.42525,2.39106 l 1.19849,2.36217 2.62728,-1.33296 z m 59.84681,-29.81237 1.79671,3.54134 1.50559,-0.76389 c 0.24058,-0.43529 0.48793,-0.87285 0.7434,-1.31321 l -0.98809,-1.94758 c -1.02221,0.16527 -2.04025,0.32513 -3.05761,0.48334 z m 3.39785,-0.53878 0.84457,1.66462 c 0.38923,-0.66325 0.79445,-1.3315 1.21872,-2.00697 -0.6902,0.11785 -1.37733,0.23063 -2.06329,0.34226 z m -65.24672,33.64248 c -0.65138,1.12902 -1.22779,2.17112 -1.7215,3.11671 l 0.19588,0.38608 2.6267,-1.33265 z m -1.90606,3.47909 c -0.0507,0.0989 -0.0997,0.19541 -0.14902,0.2926 l 0.23653,-0.12022 z m -0.62155,1.23809 c -0.3721,0.76691 -0.69311,1.47449 -0.97171,2.13287 l 2.91477,5.745 2.62726,-1.33292 -3.57647,-7.04922 z m 1.28683,-0.6529 3.57645,7.04917 2.62669,-1.33266 -3.57645,-7.0492 z m 2.91964,-1.4813 3.57646,7.04914 2.62725,-1.33292 -3.57646,-7.04922 z m 2.92024,-1.48163 3.57643,7.04917 0.95542,-0.48474 0.49013,-1.49836 -3.07219,-6.05529 z m 4.94366,-2.50821 3.07225,6.05526 1.49807,0.48968 0.9554,-0.48476 -3.57649,-7.04915 z m 2.24279,-1.13789 3.57643,7.04915 2.6267,-1.33269 -3.57647,-7.04914 z m 2.91966,-1.48132 3.57646,7.04915 2.6272,-1.33296 -3.57642,-7.04916 z m 2.9202,-1.4816 3.57646,7.04914 2.62669,-1.33268 -3.57645,-7.04915 z m 2.91967,-1.48133 3.57645,7.04914 2.62723,-1.33296 -3.57645,-7.04917 z m 2.92018,-1.4816 3.57647,7.04915 2.62671,-1.3327 -3.57647,-7.04914 z m 2.91969,-1.48133 3.57644,7.04914 2.62729,-1.33295 -3.57651,-7.04914 z m 2.92021,-1.48157 3.57648,7.04912 0.95536,-0.4847 0.48961,-1.49813 -3.0722,-6.05533 z m 4.7746,-2.42247 3.0722,6.05529 0.0953,0.0305 c 0.53456,-0.48427 1.07103,-0.9738 1.61832,-1.48632 l -2.83575,-5.58931 z m 2.24279,-1.13785 2.79272,5.50448 c 0.41859,-0.39468 0.84171,-0.79857 1.27237,-1.21954 -0.42446,0.41453 -0.84356,0.82784 -1.26158,1.24071 l 0.77295,1.52345 2.62666,-1.33268 -3.57647,-7.04915 z m 2.91961,-1.48133 3.5765,7.04911 2.62725,-1.33296 -3.57645,-7.04914 z m 2.92025,-1.48161 3.57645,7.04914 2.6267,-1.33271 -3.57645,-7.04907 z m 2.91966,-1.48133 3.57646,7.04915 2.62724,-1.33299 -3.57645,-7.04908 z m 2.91969,-1.48131 3.57642,7.04913 2.62724,-1.33299 -3.57645,-7.04907 z m 2.92019,-1.4816 3.57646,7.04914 2.62722,-1.333 -3.57644,-7.04908 z m 2.91968,-1.48133 3.57645,7.04914 0.95593,-0.48497 0.48964,-1.49813 -3.07226,-6.0553 z m 4.92583,-2.49917 2.37089,4.67306 c 0.33551,-0.885 0.69895,-1.77962 1.0899,-2.68406 l -1.51101,-2.97824 z m 2.24273,-1.13788 1.38704,2.73386 c 0.48633,-1.10484 1.01926,-2.22556 1.59751,-3.36257 l -0.35718,-0.70425 z m 2.92021,-1.4816 0.24925,0.49106 c 0.14413,-0.27939 0.29169,-0.56011 0.44162,-0.84155 z m -67.59672,36.248 c -0.6161,1.50183 -1.01622,2.75195 -1.3257,3.89684 l 1.48782,2.93251 2.62668,-1.33265 z m -1.4508,4.3764 c -0.32648,1.27203 -0.56998,2.44693 -0.9083,3.7321 l 2.22824,-1.13047 z m 43.99717,-20.85029 c -0.50624,0.50119 -1.00692,1.00143 -1.50262,1.49984 l 1.27265,0.41589 0.95593,-0.485 z m -2.51638,2.5278 c -0.18883,0.19203 -0.37931,0.38429 -0.5661,0.57567 l 0.14223,0.28076 -0.54349,1.66298 -2.81251,1.42697 c -0.42356,0.45491 -0.8409,0.90831 -1.25164,1.35986 l 4.35662,-2.21038 1.66299,0.54348 2.18405,4.30473 8.91482,17.57098 -0.5435,1.66299 -17.51185,8.88482 -4.25784,2.16025 -1.66298,-0.54349 -7.00259,-13.80195 c -0.14551,0.22183 -0.28405,0.44389 -0.42718,0.66568 l 6.82137,13.4449 -0.5435,1.66299 -17.38181,8.81884 c -0.15036,0.39059 -0.30435,0.78652 -0.44702,1.1657 l 0.59207,-0.30041 17.61561,-8.93743 1.66299,0.54348 2.09006,4.11945 6.04136,11.90748 c 0.20781,-0.0992 0.40865,-0.19947 0.61306,-0.29904 l -8.13618,-16.03631 0.5435,-1.663 4.25782,-2.16027 17.51181,-8.88482 1.66298,0.54348 4.34408,8.562 c 0.10973,-0.35133 0.21188,-0.71034 0.31699,-1.06665 l -1.88846,-3.72215 -2.09007,-4.11944 0.5435,-1.663 5.94762,-3.01752 c 0.0362,-0.33189 0.0791,-0.66067 0.11297,-0.99609 l -6.43922,3.26703 -1.66299,-0.5435 -11.09884,-21.87578 0.54349,-1.66297 20.57826,-10.4406 c 0.074,-0.27905 0.14414,-0.55707 0.2227,-0.83776 l -21.09336,10.70191 -1.66295,-0.54349 z m -42.73665,25.91688 c 0.002,1.27353 0.0136,2.52801 0.0362,3.74728 l 2.05753,4.05526 2.6267,-1.33265 -3.57678,-7.04976 z m 1.43581,-0.72847 3.57676,7.04968 2.62724,-1.33292 -3.57675,-7.04969 z m 2.92021,-1.48161 3.57676,7.04969 2.6267,-1.33264 -3.57676,-7.04968 z m 2.91972,-1.48125 3.57671,7.04961 2.62722,-1.33292 -3.57669,-7.04968 z m 2.9202,-1.48167 3.57672,7.04969 2.62669,-1.33266 -3.57672,-7.04968 z m 2.91965,-1.48133 3.57673,7.04969 2.62726,-1.33292 -3.57675,-7.04969 z m 2.9202,-1.48159 3.57673,7.04969 1.92249,-0.9753 c 0.008,-0.0102 0.0135,-0.017 0.0189,-0.027 l -3.06515,-6.04134 -1.49866,-0.48934 z m 5.93756,-3.01245 -0.48964,1.49813 2.27436,4.48273 c 0.49208,-0.6883 0.9723,-1.35027 1.44186,-1.98898 l -2.27124,-4.47657 z m 1.24887,-0.63363 2.19654,4.32924 c 0.68034,-0.92124 1.33781,-1.79291 1.97465,-2.61782 l -1.5445,-3.04408 z m 2.91968,-1.48134 1.47366,2.90461 c 0.70106,-0.90329 1.36733,-1.72892 2.02109,-2.52774 l -0.86751,-1.70986 z m 2.92023,-1.4816 0.80183,1.58036 c 0.71001,-0.86215 1.40236,-1.68606 2.06411,-2.44153 l -0.23924,-0.47149 z m 2.91967,-1.48132 0.1807,0.35583 c 0.25143,-0.28549 0.49513,-0.5519 0.74068,-0.82347 z m 3.33535,-1.69225 c -0.11056,0.12868 -0.21756,0.25603 -0.32692,0.38427 l 3.48868,6.87617 2.62667,-1.33269 -3.5767,-7.04972 z m 2.50451,-1.27068 3.57672,7.04969 2.62729,-1.33294 -3.57678,-7.04974 z m 2.92019,-1.48161 3.57679,7.04969 1.94922,-0.98894 -3.07252,-6.05588 -1.49812,-0.4896 z m 5.7685,-2.92669 -0.48963,1.49813 3.07246,6.05584 1.94983,-0.98925 -3.57678,-7.04969 z m 1.24887,-0.63363 3.57675,7.04975 2.6267,-1.33273 -3.57675,-7.04969 z m 2.91966,-1.48133 3.57678,7.04969 2.62721,-1.33293 -3.57669,-7.04969 z m 2.92025,-1.4816 3.57673,7.04974 2.6267,-1.3327 -3.57678,-7.0497 z m 2.91961,-1.48133 3.57679,7.04975 2.62724,-1.33299 -3.57673,-7.04969 z m 2.91969,-1.48132 3.57676,7.04974 0.4371,-0.22182 c 0.16392,-1.41455 0.35582,-2.83847 0.58473,-4.27587 l -1.97113,-3.88509 z m 2.92023,-1.48161 1.765,3.47884 c 0.25548,-1.53804 0.56487,-3.09479 0.933,-4.67231 l -0.0709,-0.13952 z m -27.59959,14.37484 c -0.70902,0.83441 -1.39105,1.66157 -2.04453,2.48141 l 2.84399,5.60548 2.62725,-1.33292 z m -2.26927,2.76455 c -0.69486,0.87884 -1.35516,1.7487 -1.97922,2.6089 l 2.12828,4.19476 2.62667,-1.33265 z m -2.19573,2.90818 c -0.67569,0.94201 -1.30677,1.87229 -1.88828,2.78951 l 1.31284,2.58765 2.62723,-1.33299 z m -30.23907,16.1028 c 0.0314,1.45677 0.0818,2.87217 0.14415,4.25145 l 1.60105,-0.81229 z m 28.14475,-12.99336 c -0.28448,0.45647 -0.55796,0.91006 -0.81732,1.35982 -0.35808,0.48591 -0.70782,0.97265 -1.05515,1.45951 l 0.47169,0.92965 2.62671,-1.33265 z m -2.08873,3.12061 c -0.35623,0.50306 -0.70648,1.0068 -1.05145,1.51087 l 1.44591,-0.73356 z m -25.88316,14.81468 c 0.002,0.083 0.008,0.17035 0.008,0.25298 l 3.18916,6.28572 1.94977,-0.98921 -3.29333,-6.49113 z m 2.14959,-1.09061 3.2933,6.49112 2.62671,-1.33269 -3.29334,-6.4911 z m 2.91966,-1.48133 3.29333,6.49115 2.62727,-1.33299 -3.29336,-6.49109 z m 2.92021,-1.4816 3.29332,6.49112 2.6267,-1.33268 -3.29334,-6.4911 z m 2.91965,-1.48133 3.19598,6.29917 c 0.54095,-1.14222 1.08856,-2.2324 1.64167,-3.27549 l -2.21036,-4.3566 z m 2.92026,-1.4816 2.10501,4.14905 c 0.57514,-1.07145 1.15656,-2.09253 1.74251,-3.07547 l -1.22084,-2.40623 z m 2.91965,-1.48133 1.12827,2.22382 c 0.60594,-1.00515 1.21687,-1.96968 1.83194,-2.90047 l -0.33281,-0.65627 z m 2.9202,-1.48159 0.24844,0.48944 c 0.21079,-0.31599 0.42221,-0.62783 0.63393,-0.93703 z m 4.9437,-2.50817 3.2933,6.49109 1.94923,-0.98897 -3.29333,-6.49109 z m 2.24273,-1.13792 3.29332,6.49115 2.62671,-1.33271 -3.29334,-6.49109 z m 2.91966,-1.48126 3.29335,6.49109 2.62724,-1.33299 -3.29329,-6.4911 z m 2.92026,-1.48167 3.29332,6.49115 2.6267,-1.33272 -3.29334,-6.49109 z m 2.91965,-1.48125 3.29333,6.49108 2.62725,-1.33299 -3.29334,-6.49108 z m 2.92021,-1.48167 3.29333,6.49116 2.62669,-1.33273 -3.29332,-6.4911 z m 2.91965,-1.48133 3.29333,6.49116 2.62724,-1.333 -3.29333,-6.49109 z m 2.92022,-1.48161 3.29331,6.4911 1.94923,-0.98891 -3.2933,-6.49112 z m 4.77461,-2.42241 3.29333,6.49112 1.94975,-0.98921 -3.2933,-6.49116 z m 2.24273,-1.13793 3.29333,6.49116 2.62671,-1.33271 -3.29333,-6.49109 z m 2.91967,-1.48125 3.29333,6.49109 2.6273,-1.33292 -3.2934,-6.49116 z m 2.9202,-1.48166 3.29339,6.49115 2.6267,-1.33271 -3.29338,-6.4911 z m 2.91969,-1.48133 3.29331,6.49115 0.3197,-0.16222 c -0.0604,-2.10847 -0.1929,-4.2779 -0.40189,-6.51117 l -0.58377,-1.15063 z m 2.91966,-1.48126 0.2032,0.4005 c -0.019,-0.15951 -0.0314,-0.31868 -0.0496,-0.47853 z m -40.71587,22.48408 c -0.45755,0.73389 -0.90018,1.46866 -1.33313,2.20465 l 1.93968,3.82311 1.94984,-0.98921 z m -1.5307,2.54135 c -0.60123,1.03151 -1.17788,2.06512 -1.73031,3.10084 l 0.94738,1.86717 2.62723,-1.33296 z m -20.60616,10.59299 c 0.0407,0.58349 0.0867,1.15929 0.13411,1.72761 l 2.88051,5.67744 2.09007,4.1195 -0.54352,1.663 -2.62839,1.33349 c 0.0604,0.2855 0.12382,0.56463 0.18641,0.84437 l 2.8209,-1.4312 1.66299,0.54349 0.49516,0.97596 0.29305,-0.88547 -0.19779,-0.39015 0.54296,-1.66267 0.40188,-0.20354 0.37299,-1.12804 -1.15349,0.58522 -1.66241,-0.54376 z m 18.68738,-7.13761 c -0.49328,0.93462 -0.96676,1.87124 -1.42002,2.80934 l 2.2629,-1.14808 z m -15.42149,10.6191 3.0722,6.05532 1.49812,0.48962 0.95587,-0.48501 -3.57645,-7.0492 z m 2.24273,-1.13789 3.57646,7.04915 0.0217,-0.0102 0.29758,-0.89896 c 0.33596,-1.02273 0.67745,-1.99945 1.02147,-2.95595 l -2.29106,-4.51564 z m 2.91966,-1.48132 2.15174,4.24112 c 0.46946,-1.28795 0.94578,-2.51832 1.42881,-3.69519 l -0.95331,-1.87892 z m 2.9202,-1.4816 0.82562,1.62723 c 0.37479,-0.90153 0.75257,-1.77991 1.13478,-2.62186 z m 5.4738,-2.7772 c -0.52729,1.12596 -1.02499,2.25423 -1.49411,3.38518 l 2.51648,4.95984 2.62724,-1.33293 -3.57651,-7.04921 z m 0.36622,-0.18559 3.57641,7.04915 2.62671,-1.33266 -3.57648,-7.04914 z m 2.91965,-1.48133 3.57645,7.04915 2.62722,-1.33293 -3.57643,-7.04921 z m 2.92021,-1.4816 3.57645,7.04915 0.95534,-0.48471 0.49017,-1.49839 -3.0722,-6.05529 z m 4.94365,-2.50823 3.0722,6.05529 1.49813,0.48965 0.95537,-0.48478 -3.57647,-7.04913 z m 2.24274,-1.13786 3.57651,7.04912 2.62664,-1.33269 -3.57645,-7.04914 z m 2.91967,-1.48132 3.5765,7.04914 2.62724,-1.33299 -3.57651,-7.04914 z m 2.92025,-1.4816 3.57646,7.04911 2.62668,-1.33268 -3.57647,-7.04916 z m 2.91969,-1.48133 3.57642,7.04914 2.62724,-1.33299 -3.57645,-7.04908 z m 2.92019,-1.48159 3.57646,7.04914 2.62667,-1.33273 -3.57642,-7.04907 z m 2.91966,-1.48135 3.57647,7.04916 2.62724,-1.33299 -3.57646,-7.04909 z m 2.9202,-1.48159 3.57646,7.04915 0.95537,-0.48471 0.4896,-1.49812 -3.07219,-6.05529 z m 4.77459,-2.42248 3.07221,6.05537 1.49814,0.48957 0.9559,-0.48498 -3.57647,-7.04914 z m 2.24276,-1.13785 3.57646,7.04914 2.62669,-1.33266 -3.57645,-7.04913 z m 2.91968,-1.48133 3.57644,7.04914 2.05638,-1.04329 c 0.0314,-0.40911 0.0637,-0.82059 0.0913,-1.23498 l -3.09685,-6.10379 z m 2.92021,-1.48161 2.84488,5.60718 c 0.11839,-2.01385 0.16716,-4.09038 0.1417,-6.23059 l -0.35989,-0.70924 z m 2.91965,-1.48132 0.0569,0.1121 c -8.2e-4,-0.046 -0.002,-0.0932 -0.002,-0.13953 z m -63.01893,32.47502 c 0.26902,2.39553 0.59244,4.64658 0.97207,6.74825 l 0.45214,0.89119 0.95592,-0.48497 0.48964,-1.49812 z m 14.66862,-5.00528 c -0.50653,1.23996 -0.97477,2.4833 -1.41064,3.72943 l 1.17471,2.31528 2.62664,-1.33264 z m -1.55868,4.16376 c -0.32149,0.93712 -0.62805,1.8756 -0.9092,2.81618 -0.0362,0.0853 -0.0623,0.16156 -0.0962,0.24622 l 2.03518,-1.0326 z m -11.16939,12.15686 c 0.59849,2.44246 1.28151,4.65964 2.05335,6.64166 l 0.9066,-2.73975 -2.18034,-4.29749 z m 1.0726,-0.54417 2.03285,4.00669 0.96757,-2.92506 -0.54615,-1.07649 -1.49839,-0.49018 z m 7.23834,-3.67247 c -0.0136,0.0305 -0.027,0.0681 -0.0362,0.10056 l 3.54361,6.98446 2.62669,-1.33268 -3.57675,-7.04972 z m 2.84989,-1.44594 3.57672,7.04975 2.62722,-1.33299 -3.57671,-7.04969 z m 2.9202,-1.48159 3.57672,7.04974 2.6267,-1.33272 -3.57672,-7.04969 z m 2.91965,-1.48134 3.57678,7.04975 2.62725,-1.333 -3.57679,-7.04968 z m 2.92021,-1.4816 3.57679,7.04976 2.62669,-1.33269 -3.57678,-7.04972 z m 2.91969,-1.48133 3.57674,7.04976 2.62725,-1.33296 -3.57678,-7.04971 z m 2.92023,-1.4816 3.57673,7.04976 1.94976,-0.98928 -3.07219,-6.05526 -1.49894,-0.48991 z m 5.9375,-3.01243 -0.48931,1.49866 3.0722,6.05526 1.94923,-0.98894 -3.57676,-7.04975 z m 1.24892,-0.63369 3.57673,7.04973 2.62666,-1.33267 -3.57669,-7.04974 z m 2.91966,-1.48133 3.57675,7.04972 2.62725,-1.33291 -3.57675,-7.04977 z m 2.9202,-1.48159 3.57678,7.04972 2.62667,-1.33265 -3.57675,-7.04977 z m 2.91966,-1.48133 3.57678,7.04972 2.62725,-1.33292 -3.57678,-7.04976 z m 2.92025,-1.4816 3.57673,7.04971 2.6267,-1.33264 -3.57678,-7.04975 z m 2.91963,-1.48133 3.57677,7.04973 2.62724,-1.33294 -3.57673,-7.04974 z m 2.92027,-1.48157 3.57669,7.0497 1.94924,-0.98895 -3.07219,-6.05533 -1.49841,-0.49011 z m 5.76842,-2.92669 -0.48935,1.49868 2.83695,5.59155 c 0.2854,-1.06759 0.55314,-2.15294 0.79517,-3.26492 l -2.18682,-4.31035 z m 1.24892,-0.63365 2.00029,3.94257 c 0.3292,-1.56648 0.61375,-3.17757 0.85006,-4.8344 l -0.22351,-0.44074 z m 2.91965,-1.48131 0.0136,0.027 c 8.2e-4,-0.0136 0.002,-0.0238 0.006,-0.0363 z m -52.28442,26.9516 c -0.35583,1.00303 -0.68145,1.96478 -0.9829,2.89488 l 2.43856,4.80643 1.94979,-0.98924 z m -1.55537,4.72207 c -0.0943,0.31191 -0.18506,0.6192 -0.27365,0.92401 l 2.99376,5.90066 c 0.23896,-0.017 0.48147,-0.0305 0.71756,-0.0488 l -3.15122,-6.21094 z m -0.80446,2.83457 c -0.2154,0.81456 -0.40596,1.6019 -0.58462,2.3771 l 1.42411,-0.72252 z m -0.76247,3.17323 c -0.008,0.0363 -0.0189,0.0728 -0.0217,0.10838 l 1.42438,2.80748 c 0.0981,-0.67449 0.1986,-1.33137 0.29982,-1.95763 0.38292,-0.0136 0.75583,-0.0363 1.13111,-0.0539 l -0.94452,-1.86166 z m 4.86277,-2.46718 1.57759,3.10936 c 0.79092,-0.0755 1.56424,-0.1602 2.32324,-0.25333 l -1.95103,-3.84541 z m 2.2428,-1.13786 2.00421,3.95035 c 1.05501,-0.1331 2.08086,-0.28041 3.08028,-0.43892 l -2.45781,-4.84428 z m 2.91965,-1.48132 2.50594,4.93918 c 1.04182,-0.16831 2.0432,-0.3495 3.0327,-0.53387 l -2.9114,-5.7383 z m 2.9202,-1.48161 2.95502,5.82419 c 0.90857,-0.17103 1.79923,-0.34273 2.67064,-0.51714 l 0.29396,-0.14901 -3.29306,-6.49055 z m 2.91966,-1.48133 3.29306,6.49056 2.62723,-1.333 -3.29304,-6.49054 z m 2.9202,-1.48159 3.29306,6.49054 2.6267,-1.33264 -3.29306,-6.49058 z m 2.91968,-1.48133 3.29306,6.49056 2.62722,-1.33294 -3.29301,-6.49058 z m 2.92025,-1.48159 3.29304,6.49055 1.94977,-0.98926 -3.29306,-6.49055 z m 4.94368,-2.50824 3.29303,6.49055 1.94923,-0.98898 -3.29303,-6.49055 z m 2.24273,-1.13786 3.29306,6.49049 2.6267,-1.33266 -3.29306,-6.49055 z m 2.91965,-1.48132 3.29306,6.49052 2.62726,-1.33297 -3.29307,-6.49054 z m 2.92021,-1.4816 3.29306,6.49051 2.6267,-1.33268 -3.29306,-6.49055 z m 2.91965,-1.4814 3.29307,6.49058 1.9186,-0.97336 c 0.19452,-0.20083 0.38878,-0.4046 0.58041,-0.61238 l -3.16476,-6.23776 z m 2.92027,-1.48153 3.10787,6.12556 c 0.70032,-0.77408 1.38196,-1.59595 2.04853,-2.47216 l -2.5297,-4.98612 z m 2.91963,-1.4814 2.45785,4.84439 c 0.64596,-0.86512 1.27863,-1.7842 1.9016,-2.76325 l -1.73218,-3.41406 z m 2.92025,-1.48159 1.64356,3.23948 c 0.39647,-0.63385 0.79006,-1.29025 1.18029,-1.9763 0.0362,-0.10567 0.0697,-0.21504 0.10511,-0.32071 l -0.97994,-1.93138 z m -49.46811,25.64127 c -0.34817,1.6573 -0.61982,3.25132 -0.84979,4.83636 l 1.29644,2.55524 0.51618,-0.26179 c 0.14008,-1.53348 0.30931,-2.94572 0.49296,-4.26026 z m -0.93045,5.40214 c -0.13195,0.95225 -0.25278,1.9071 -0.3617,2.87171 l 1.44646,-0.73385 z m -0.44207,3.61829 c -0.0591,0.54917 -0.11731,1.11921 -0.17286,1.68069 l 2.14132,4.2204 c 0.0135,-2.21157 0.0943,-4.22415 0.22541,-6.06677 l -0.38246,-0.75338 z m 2.10379,-1.06739 0.13954,0.27466 c 0.008,-0.12022 0.019,-0.24113 0.027,-0.35986 z m 20.27078,-10.28463 c 0.4594,-0.0925 0.92405,-0.18559 1.37556,-0.27466 l -0.17069,-0.3363 z m 1.49779,-0.75989 0.2135,0.42129 c 0.68601,-0.13411 1.36849,-0.2672 2.03978,-0.38879 0.29938,-0.12903 0.58007,-0.25231 0.87344,-0.3793 l -0.50021,-0.98607 z m 2.91967,-1.48134 0.50902,1.00341 c 0.92815,-0.40278 1.82867,-0.8 2.70005,-1.18961 l -0.58183,-1.14672 z m 2.92019,-1.48159 0.58948,1.16183 c 0.68031,-0.30582 1.34193,-0.60947 1.98946,-0.91108 l -0.62911,-1.24 z m 4.94368,-2.50824 0.65915,1.29913 c 0.6627,-0.33562 1.30774,-0.67273 1.93617,-1.01464 l -0.6461,-1.2734 z m 2.24279,-1.13786 0.64099,1.26344 c 0.88013,-0.48477 1.72842,-0.97942 2.54685,-1.49013 l -0.56115,-1.10595 z m 2.91968,-1.48132 0.54729,1.07865 c 0.84768,-0.53713 1.66436,-1.09375 2.45337,-1.67555 l -0.37344,-0.73609 z m 2.9202,-1.4816 0.34859,0.68696 c 0.80522,-0.60459 1.58265,-1.23776 2.33511,-1.90751 l -0.0569,-0.1121 z m 2.91966,-1.48133 0.0189,0.0305 c 0.0314,-0.0305 0.0663,-0.0624 0.0997,-0.0925 z m -45.89024,25.45602 c -0.16743,1.71819 -0.34136,3.53913 -0.52812,5.46883 l 0.60106,1.18475 2.13509,-1.08325 c -0.006,-0.41995 -0.006,-0.82567 -0.008,-1.23214 z m -0.58725,6.07843 c -0.0314,0.32648 -0.0588,0.62244 -0.0927,0.95707 l 0.45983,-0.23334 z m -0.11108,2.44764 c 0.002,0.23943 0.002,0.48097 0.008,0.71947 l 2.95092,-1.49718 c -0.008,-0.23943 -0.0136,-0.47779 -0.0217,-0.71297 z m 0.0759,2.16703 c 0.0407,0.71577 0.0894,1.42805 0.15524,2.13349 l 2.68379,5.28965 1.45817,-0.73978 c -0.4046,-1.29765 -0.77645,-2.6387 -1.09561,-4.00021 -0.0314,-0.41859 -0.0588,-0.82022 -0.0867,-1.228 l -1.22481,-2.41411 z m 2.18303,-1.10758 0.87206,1.71877 c -0.0452,-0.71811 -0.0835,-1.41858 -0.11459,-2.10298 z m -1.92638,4.16652 c 0.1986,1.78829 0.482,3.53947 0.84434,5.24618 l 1.44532,-0.73329 z m 0.98021,5.88317 c 0.46704,2.07343 1.05329,4.07508 1.74368,5.99533 l 0.51726,1.01955 2.62671,-1.33272 -3.29334,-6.49105 z m 1.88728,-0.9576 3.29332,6.49115 0.7182,-0.3644 c -0.89802,-1.95644 -1.82735,-4.2947 -2.64324,-6.82092 z m 0.65816,8.53331 3.17163,6.25115 2.05419,-2.46106 -2.59912,-5.12281 z m 2.91967,-1.48132 2.53544,4.99722 0.72226,-0.86535 c -0.66298,-0.84196 -1.5816,-2.42733 -2.55734,-4.48721 z m -2.25764,3.5122 c 0.51911,1.13821 1.07751,2.23805 1.67301,3.29747 z"
         style="fill:url(#linearGradient1860);fill-opacity:1;stroke:#245785;stroke-width:0.0410978;stroke-opacity:1"
         inkscape:export-xdpi="400"
         inkscape:export-ydpi="400" />
      <g
         aria-label="F "
         id="text1856"
         style="font-size:97.5107px;line-height:1.25;font-family:Quicksand;-inkscape-font-specification:'Quicksand, Normal';fill:#2e3440;stroke-width:1.12512">
        <path
           d="m 141.69145,242.37148 q -1.36515,0 -2.24275,-0.8776 -0.78009,-0.8776 -0.78009,-2.04773 v -62.40684 q 0,-1.17013 0.8776,-2.04773 0.8776,-0.87759 2.04773,-0.87759 h 35.49389 q 1.26764,0 2.04772,0.87759 0.8776,0.78009 0.8776,2.04773 0,1.17013 -0.8776,2.04772 -0.78008,0.78009 -2.04772,0.78009 h -32.86111 l 0.39005,-0.58507 v 25.93785 l -0.48756,-0.8776 h 28.57064 q 1.26764,0 2.04772,0.8776 0.8776,0.78009 0.8776,1.95021 0,1.26764 -0.8776,2.04773 -0.78008,0.78008 -2.04772,0.78008 h -28.76566 l 0.68258,-0.78008 v 30.22831 q 0,1.17013 -0.8776,2.04773 -0.78008,0.8776 -2.04772,0.8776 z"
           id="path879" />
      </g>
    </g>
  </g>
</svg>
