<?xml version="1.0" encoding="UTF-8" standalone="no"?>
<!-- Created with Inkscape (http://www.inkscape.org/) -->

<svg
   width="2148.699"
   height="512"
   viewBox="0 0 568.50995 135.46667"
   version="1.1"
   id="svg8"
   inkscape:version="1.2.2 (b0a8486541, 2022-12-01)"
   sodipodi:docname="lpf_logo.svg"
   xmlns:inkscape="http://www.inkscape.org/namespaces/inkscape"
   xmlns:sodipodi="http://sodipodi.sourceforge.net/DTD/sodipodi-0.dtd"
   xmlns:xlink="http://www.w3.org/1999/xlink"
   xmlns="http://www.w3.org/2000/svg"
   xmlns:svg="http://www.w3.org/2000/svg"
   xmlns:rdf="http://www.w3.org/1999/02/22-rdf-syntax-ns#"
   xmlns:cc="http://creativecommons.org/ns#"
   xmlns:dc="http://purl.org/dc/elements/1.1/">
  <defs
     id="defs2">
    <linearGradient
       id="linearGradient993"
       inkscape:collect="always">
      <stop
         id="stop989"
         offset="0"
         style="stop-color:#245785;stop-opacity:1" />
      <stop
         id="stop991"
         offset="1"
         style="stop-color:#33c5a1;stop-opacity:1" />
    </linearGradient>
    <linearGradient
       inkscape:collect="always"
       xlink:href="#linearGradient993"
       id="linearGradient1860"
       gradientUnits="userSpaceOnUse"
       gradientTransform="matrix(1.3488795,0,0,1.3488795,54.853526,-261.81243)"
       x1="105.17616"
       y1="418.57458"
       x2="166.08279"
       y2="307.01761" />
  </defs>
  <sodipodi:namedview
     id="base"
     pagecolor="#ffffff"
     bordercolor="#666666"
     borderopacity="1.0"
     inkscape:pageopacity="0.0"
     inkscape:pageshadow="2"
     inkscape:zoom="0.30790089"
     inkscape:cx="1042.5433"
     inkscape:cy="256.57607"
     inkscape:document-units="px"
     inkscape:current-layer="layer1"
     showgrid="false"
     inkscape:window-width="1366"
     inkscape:window-height="768"
     inkscape:window-x="0"
     inkscape:window-y="0"
     inkscape:window-maximized="1"
     showguides="false"
     inkscape:showpageshadow="0"
     inkscape:pagecheckerboard="0"
     inkscape:deskcolor="#d1d1d1">
    <inkscape:grid
       type="xygrid"
       id="grid4412"
       originx="-138.66863"
       originy="-152.28602" />
  </sodipodi:namedview>
  <metadata
     id="metadata5">
    <rdf:RDF>
      <cc:Work
         rdf:about="">
        <dc:format>image/svg+xml</dc:format>
        <dc:type
           rdf:resource="http://purl.org/dc/dcmitype/StillImage" />
      </cc:Work>
    </rdf:RDF>
  </metadata>
  <g
     inkscape:label="Camada 1"
     inkscape:groupmode="layer"
     id="layer1"
     transform="translate(-138.66862,-152.28602)">
    <g
       id="g863"
       transform="matrix(0.89771486,0,0,0.89771486,14.183746,15.576605)"
       inkscape:export-filename="lpf_logo.png"
       inkscape:export-xdpi="96"
       inkscape:export-ydpi="96">
      <text
         xml:space="preserve"
         style="font-style:normal;font-variant:normal;font-weight:normal;font-stretch:normal;font-size:108.621px;line-height:1.25;font-family:Quicksand;-inkscape-font-specification:'Quicksand, Normal';font-variant-ligatures:normal;font-variant-caps:normal;font-variant-numeric:normal;font-variant-east-asian:normal;fill:#2e3440;fill-opacity:1;stroke:none;stroke-width:1.25332"
         x="283.91971"
         y="251.54955"
         id="text1850"><tspan
           sodipodi:role="line"
           id="tspan1848"
           style="font-style:normal;font-variant:normal;font-weight:normal;font-stretch:normal;font-size:108.621px;font-family:Quicksand;-inkscape-font-specification:'Quicksand, Normal';font-variant-ligatures:normal;font-variant-caps:normal;font-variant-numeric:normal;font-variant-east-asian:normal;fill:#2e3440;fill-opacity:1;stroke-width:1.25332"
           x="283.91971"
           y="251.54955">tovoltaica</tspan></text>
      <path
         inkscape:connector-curvature="0"
         id="path1852"
         d="m 235.73436,162.20461 c -0.0609,0.034 -0.12012,0.0649 -0.18108,0.0992 l 2.00651,3.95476 2.17196,-1.10196 -1.90116,-3.74715 c -0.69293,0.25652 -1.39001,0.51967 -2.09611,0.7954 z m -6.88954,3.526 c -0.61493,0.30671 -1.23187,0.62157 -1.85087,0.94608 l 1.99423,3.93045 2.92658,-1.48478 -1.99135,-3.92496 c -0.35916,0.17693 -0.71875,0.35349 -1.07859,0.53321 z m -2.1728,1.12037 c -0.94493,0.50149 -1.89587,1.02878 -2.86007,1.61442 l 1.92391,3.79186 2.92595,-1.48449 z m 3.5793,-1.81603 1.98979,3.92186 2.17132,-1.10166 -1.97968,-3.90194 c -0.72834,0.36632 -1.45508,0.72441 -2.18143,1.08174 z m 4.12634,-2.09037 c -0.25141,0.13431 -0.50331,0.26823 -0.75393,0.39786 l 7.87837,15.52809 2.14117,4.22023 c 0.2179,-0.19467 0.43811,-0.39487 0.65648,-0.59021 z m -10.87877,5.71254 c -0.90266,0.55774 -1.81728,1.16542 -2.74654,1.8398 l 1.73052,3.41075 2.92662,-1.48479 z m 14.67751,-7.37494 1.8816,3.70864 2.92598,-1.48457 -1.68635,-3.32376 c -1.02635,0.34594 -2.06652,0.71255 -3.12123,1.09969 z m -17.72232,9.43558 c -0.85779,0.63364 -1.72963,1.32657 -2.61753,2.09248 l 1.39403,2.74754 2.92592,-1.4845 z m 21.19352,-10.65427 1.66272,3.27722 2.92658,-1.48484 -1.42173,-2.80229 c -1.04204,0.31691 -2.09762,0.65265 -3.16757,1.00991 z m 3.52391,-1.11643 1.39176,2.74324 2.92599,-1.48454 -1.1029,-2.17385 c -1.05988,0.28822 -2.12811,0.58817 -3.21485,0.91515 z m -27.61972,14.11081 c -0.81532,0.71489 -1.64452,1.49197 -2.49102,2.34327 l 0.91682,1.80706 2.92659,-1.48481 z m 31.19594,-15.12253 1.06787,2.10485 2.92658,-1.48484 -0.7364,-1.45152 c -1.07351,0.25916 -2.15961,0.53645 -3.25805,0.83151 z m -33.95747,17.74142 c -0.77711,0.79262 -1.56711,1.64476 -2.37471,2.57114 l 0.30985,0.6104 2.92598,-1.4845 z m 37.58005,-18.66171 0.69761,1.37502 2.92659,-1.48483 -0.32444,-0.63968 c -1.08763,0.23239 -2.18978,0.48489 -3.29971,0.74949 z m 3.67082,-0.82678 0.27978,0.55139 2.00597,-1.01776 c -0.75701,0.14827 -1.51952,0.30483 -2.28571,0.46629 z m -43.88536,22.35793 c -0.29426,0.34141 -0.58973,0.69097 -0.88821,1.05168 l 1.13076,-0.57366 z m -1.61155,2.20502 3.66864,7.23071 2.17132,-1.10161 -3.66857,-7.23077 z m 2.49833,-1.26758 3.66857,7.23072 2.92598,-1.48453 -3.66856,-7.23069 z m 3.25235,-1.65011 3.66854,7.23076 2.92659,-1.48487 -3.66858,-7.23068 z m 3.25294,-1.65041 3.66856,7.23072 2.92596,-1.48454 -3.66855,-7.23068 z m 3.25231,-1.65012 3.66858,7.23077 2.92661,-1.48488 -3.6686,-7.23067 z m 3.25294,-1.65041 3.66862,7.23072 2.92598,-1.48453 -3.66862,-7.23068 z m 3.25232,-1.6501 3.66857,7.23075 2.92664,-1.48488 -3.66857,-7.23067 z m 3.25299,-1.65034 3.66856,7.23068 2.17132,-1.10165 -3.66856,-7.23069 z m 5.31858,-2.69842 3.66858,7.23068 2.17195,-1.10204 -3.66857,-7.23068 z m 2.49833,-1.26757 3.66853,7.23067 2.92599,-1.48457 -3.66856,-7.23068 z m 3.25232,-1.65011 3.66857,7.23067 2.92656,-1.48479 -3.66854,-7.23072 z m 3.25293,-1.65042 3.66857,7.23067 2.92598,-1.48448 -3.66857,-7.23072 z m 3.25233,-1.65011 3.66858,7.23075 2.92658,-1.48487 -3.66858,-7.23071 z m 3.25232,-1.65007 3.66857,7.23071 2.92659,-1.48487 -3.66858,-7.23071 z m 3.25295,-1.65045 3.66855,7.23075 2.9266,-1.48487 -3.66858,-7.23072 z m 3.25234,-1.65008 3.66858,7.23072 2.17194,-1.10199 -3.47333,-6.84593 c -0.48691,0.0857 -0.9736,0.16939 -1.46336,0.25842 z m -50.44058,26.17304 c -0.16992,0.22182 -0.34003,0.44214 -0.51171,0.67075 l 7.6112,15.00167 -0.60541,1.85246 -19.1379,9.70977 c -9.1e-4,0.27314 -6.9e-4,0.53751 -9.1e-4,0.80839 l 19.4655,-9.87602 1.85247,0.60541 2.43287,4.79517 1.23383,2.43177 c 0.1669,-0.23049 0.33398,-0.46277 0.50149,-0.6906 l -3.49066,-6.8801 0.60543,-1.85246 4.74299,-2.40644 12.29378,-6.23736 c 0.5695,-0.57611 1.12835,-1.12917 1.67645,-1.65799 l -14.29603,7.25323 -4.74299,2.40643 -1.85247,-0.6055 -2.43291,-4.79512 z m 54.34335,-27.15737 7.18953,14.17055 c 0.10871,-0.3301 0.21035,-0.65749 0.32492,-0.98954 l -1.67973,-3.31079 -5.07176,-9.99625 c -0.25441,0.0404 -0.50793,0.083 -0.76298,0.12637 z m 2.30399,-0.38128 2.94887,5.8122 2.17192,-1.102 -2.59342,-5.1116 c -0.84114,0.13166 -1.68299,0.2652 -2.52737,0.4014 z m -58.14903,29.55017 c -0.51985,0.71931 -1.04855,1.48076 -1.5828,2.26318 l 2.34048,4.61307 2.17192,-1.10193 z m 61.0567,-30.0108 2.5395,5.00529 2.92661,-1.48487 -2.05537,-4.05111 c -1.13668,0.17656 -2.27339,0.35312 -3.41074,0.53069 z m -62.87471,32.61921 c -0.14184,0.20938 -0.28157,0.40943 -0.42453,0.62344 -0.57851,0.94506 -1.09744,1.82125 -1.58764,2.6635 l 1.33504,2.63131 2.92663,-1.48484 z m 66.66572,-33.20917 2.00143,3.94483 1.67714,-0.85092 c 0.26799,-0.48489 0.54352,-0.97231 0.8281,-1.46284 l -1.10067,-2.16949 c -1.13868,0.18411 -2.27272,0.36218 -3.406,0.53842 z m 3.78501,-0.60017 0.94079,1.85428 c 0.43358,-0.73882 0.88497,-1.48321 1.35759,-2.23564 -0.76885,0.13128 -1.53427,0.25691 -2.29838,0.38126 z m -72.6809,37.47568 c -0.7256,1.25766 -1.36768,2.4185 -1.91765,3.47183 l 0.2182,0.43007 2.92598,-1.48449 z m -2.12324,3.8755 c -0.0565,0.11018 -0.1111,0.21767 -0.166,0.32594 l 0.26348,-0.13392 z m -0.69237,1.37916 c -0.41449,0.85429 -0.77208,1.64249 -1.08242,2.37588 l 3.24688,6.39959 2.9266,-1.4848 -3.98397,-7.8524 z m 1.43345,-0.7273 3.98395,7.85235 2.92598,-1.4845 -3.98395,-7.85238 z m 3.25231,-1.65007 3.98396,7.85231 2.92659,-1.48479 -3.98395,-7.8524 z m 3.25297,-1.65045 3.98393,7.85235 1.06427,-0.53997 0.54598,-1.66908 -3.42223,-6.74523 z m 5.50694,-2.79399 3.4223,6.74519 1.66876,0.54547 1.06425,-0.53999 -3.98399,-7.85233 z m 2.49833,-1.26754 3.98392,7.85232 2.92599,-1.48453 -3.98397,-7.85232 z m 3.25232,-1.65011 3.98396,7.85233 2.92654,-1.48484 -3.98391,-7.85233 z m 3.25293,-1.65041 3.98396,7.85232 2.92597,-1.48453 -3.98395,-7.85232 z m 3.25233,-1.65011 3.98395,7.85232 2.92658,-1.48484 -3.98395,-7.85235 z m 3.25291,-1.65041 3.98397,7.85232 2.92599,-1.48454 -3.98397,-7.85232 z m 3.25236,-1.65011 3.98393,7.85231 2.92665,-1.48482 -3.98402,-7.85232 z m 3.25293,-1.65038 3.98399,7.85229 1.06421,-0.53993 0.54539,-1.66882 -3.42224,-6.74527 z m 5.31862,-2.69849 3.42224,6.74523 0.1062,0.034 c 0.59546,-0.53945 1.19306,-1.08476 1.80271,-1.65567 l -3.15886,-6.22616 z m 2.49833,-1.2675 3.11092,6.13166 c 0.46629,-0.43965 0.93762,-0.88956 1.41734,-1.35849 -0.47282,0.46176 -0.93967,0.92216 -1.40532,1.38207 l 0.86102,1.69704 2.92594,-1.48453 -3.98397,-7.85232 z m 3.25227,-1.65011 3.984,7.85228 2.9266,-1.48483 -3.98395,-7.85232 z m 3.25298,-1.65042 3.98395,7.85232 2.92599,-1.48456 -3.98395,-7.85224 z m 3.25232,-1.65011 3.98396,7.85232 2.92659,-1.48487 -3.98395,-7.85224 z m 3.25236,-1.65009 3.98392,7.8523 2.92659,-1.48487 -3.98395,-7.85224 z m 3.25292,-1.65042 3.98396,7.85232 2.92656,-1.48488 -3.98393,-7.85225 z m 3.25234,-1.65011 3.98395,7.85232 1.06485,-0.54023 0.54543,-1.66883 -3.42231,-6.74523 z m 5.48708,-2.78392 2.64103,5.20551 c 0.37374,-0.98584 0.77859,-1.98239 1.21408,-2.98989 l -1.68317,-3.31757 z m 2.49827,-1.26753 1.54508,3.04535 c 0.54174,-1.23072 1.13539,-2.47913 1.77953,-3.74569 l -0.39788,-0.7845 z m 3.25293,-1.65041 0.27765,0.54701 c 0.16056,-0.31123 0.32493,-0.62393 0.49194,-0.93744 z m -75.29865,40.37808 c -0.6863,1.67294 -1.13201,3.0655 -1.47675,4.34084 l 1.65734,3.26664 2.92597,-1.48449 z m -1.6161,4.87504 c -0.36368,1.41696 -0.63493,2.72573 -1.01179,4.15733 l 2.48212,-1.25927 z m 49.01018,-23.22596 c -0.56392,0.55829 -1.12165,1.11553 -1.67383,1.67073 l 1.41766,0.46328 1.06485,-0.54026 z m -2.80309,2.81581 c -0.21035,0.21391 -0.42253,0.42808 -0.63061,0.64127 l 0.15844,0.31275 -0.60542,1.85246 -3.13296,1.58955 c -0.47182,0.50674 -0.93671,1.0118 -1.39425,1.51481 l 4.85301,-2.46224 1.85247,0.60541 2.4329,4.79521 9.93057,19.573 -0.60543,1.85248 -19.50714,9.89715 -4.74297,2.40639 -1.85246,-0.60542 -7.80047,-15.37454 c -0.16208,0.24711 -0.31641,0.49447 -0.47585,0.74153 l 7.5986,14.97681 -0.60543,1.85246 -19.36228,9.82366 c -0.1675,0.43509 -0.33903,0.87614 -0.49796,1.29852 l 0.65953,-0.33464 19.62273,-9.95576 1.85247,0.60541 2.3282,4.58881 6.72971,13.26422 c 0.23148,-0.11053 0.45521,-0.2222 0.68291,-0.33311 l -9.06321,-17.86348 0.60542,-1.85248 4.74296,-2.40642 19.50709,-9.89715 1.85246,0.60541 4.83904,9.53755 c 0.12223,-0.39136 0.23602,-0.79128 0.35311,-1.18819 l -2.10363,-4.14625 -2.32821,-4.5888 0.60542,-1.85248 6.62529,-3.36134 c 0.0403,-0.3697 0.0881,-0.73594 0.12584,-1.10958 l -7.1729,3.63927 -1.85247,-0.60542 -12.36343,-24.3683 0.60541,-1.85245 22.92294,-11.63019 c 0.0824,-0.31085 0.16056,-0.62055 0.24807,-0.93322 l -23.49672,11.92128 -1.85243,-0.60541 z m -47.60604,28.86984 c 0.002,1.41863 0.0151,2.81605 0.0403,4.17424 l 2.29196,4.51732 2.92599,-1.48449 -3.98432,-7.85301 z m 1.5994,-0.81147 3.9843,7.85292 2.92658,-1.4848 -3.98428,-7.85293 z m 3.25294,-1.65042 3.98429,7.85292 2.92599,-1.48448 -3.9843,-7.85292 z m 3.25239,-1.65003 3.98424,7.85284 2.92656,-1.48479 -3.98422,-7.85292 z m 3.25292,-1.65049 3.98426,7.85293 2.92597,-1.4845 -3.98425,-7.85292 z m 3.25232,-1.65011 3.98426,7.85293 2.92661,-1.4848 -3.98428,-7.85292 z m 3.25292,-1.6504 3.98426,7.85292 2.14154,-1.08642 c 0.009,-0.0114 0.0151,-0.0189 0.0211,-0.0301 l -3.41439,-6.72968 -1.66942,-0.5451 z m 6.61409,-3.35569 -0.54543,1.66883 2.5335,4.99349 c 0.54814,-0.76673 1.08308,-1.50412 1.60614,-2.21561 l -2.53002,-4.98663 z m 1.39116,-0.70583 2.44681,4.82252 c 0.75786,-1.02621 1.49024,-1.9972 2.19964,-2.9161 l -1.72047,-3.39092 z m 3.25235,-1.65012 1.64157,3.23556 c 0.78093,-1.00621 1.52312,-1.92591 2.25137,-2.81575 l -0.96635,-1.90468 z m 3.25296,-1.65041 0.89319,1.76042 c 0.79091,-0.96038 1.56214,-1.87816 2.29929,-2.71971 l -0.2665,-0.52521 z m 3.25233,-1.6501 0.20129,0.39637 c 0.28008,-0.31802 0.55155,-0.61478 0.82508,-0.91729 z m 3.71538,-1.88507 c -0.12315,0.14335 -0.24235,0.28521 -0.36417,0.42806 l 3.88618,7.65963 2.92595,-1.48453 -3.98423,-7.85296 z m 2.78987,-1.41546 3.98425,7.85293 2.92665,-1.48481 -3.98432,-7.85299 z m 3.25292,-1.65042 3.98433,7.85293 2.17131,-1.10162 -3.4226,-6.74588 -1.66882,-0.54539 z m 6.42576,-3.26015 -0.54542,1.66882 3.42254,6.74584 2.17199,-1.10197 -3.98432,-7.85292 z m 1.39116,-0.70583 3.98429,7.85299 2.92598,-1.48458 -3.98428,-7.85292 z m 3.25233,-1.65011 3.98431,7.85292 2.92656,-1.4848 -3.98422,-7.85293 z m 3.25298,-1.65042 3.98426,7.85299 2.92599,-1.48455 -3.98432,-7.85294 z m 3.25227,-1.65011 3.98433,7.853 2.92658,-1.48487 -3.98426,-7.85293 z m 3.25236,-1.6501 3.98429,7.85299 0.4869,-0.2471 c 0.1826,-1.57572 0.39637,-3.16188 0.65136,-4.76306 l -2.19572,-4.32775 z m 3.25296,-1.65042 1.9661,3.87522 c 0.28459,-1.71329 0.62923,-3.44741 1.03931,-5.20467 l -0.079,-0.15542 z m -30.74427,16.0127 c -0.78981,0.92948 -1.54955,1.85089 -2.27749,2.76414 l 3.16803,6.24417 2.9266,-1.4848 z m -2.52784,3.07954 c -0.77403,0.97897 -1.50956,1.94795 -2.20473,2.90616 l 2.37078,4.67271 2.92595,-1.48449 z m -2.44591,3.23954 c -0.75267,1.04934 -1.45566,2.08561 -2.10342,3.10734 l 1.46242,2.88249 2.92658,-1.48487 z m -33.68449,17.93754 c 0.035,1.62275 0.0911,3.19942 0.16058,4.73586 l 1.78347,-0.90484 z m 31.35155,-14.47381 c -0.31689,0.50847 -0.62153,1.01375 -0.91045,1.51475 -0.39888,0.54128 -0.78846,1.08348 -1.17537,1.62581 l 0.52544,1.03557 2.92599,-1.48449 z m -2.32672,3.47617 c -0.39682,0.56037 -0.78698,1.12151 -1.17125,1.68301 l 1.61065,-0.81714 z m -28.83227,16.50265 c 0.002,0.0924 0.009,0.18976 0.009,0.28181 l 3.55253,7.00191 2.17192,-1.10192 -3.66856,-7.23073 z m 2.39451,-1.21487 3.66854,7.23071 2.92599,-1.48453 -3.66858,-7.23069 z m 3.25233,-1.65011 3.66857,7.23074 2.92661,-1.48486 -3.6686,-7.23069 z m 3.25293,-1.65042 3.66856,7.23072 2.92599,-1.48453 -3.66858,-7.23069 z m 3.25232,-1.65011 3.56012,7.0169 c 0.60259,-1.27237 1.21259,-2.48676 1.82872,-3.6487 l -2.4622,-4.85299 z m 3.25299,-1.65041 2.34485,4.62179 c 0.64067,-1.19353 1.28834,-2.33095 1.94105,-3.42589 l -1.35994,-2.68039 z m 3.25231,-1.65011 1.25683,2.4772 c 0.67498,-1.11968 1.35552,-2.19411 2.04067,-3.23095 l -0.37073,-0.73104 z m 3.25293,-1.6504 0.27675,0.5452 c 0.2348,-0.35199 0.47031,-0.69936 0.70615,-1.04379 z m 5.50698,-2.79395 3.66854,7.23068 2.17132,-1.10165 -3.66857,-7.23069 z m 2.49826,-1.26758 3.66857,7.23075 2.92599,-1.48456 -3.66858,-7.23068 z m 3.25233,-1.65003 3.66859,7.23068 2.92659,-1.48487 -3.66853,-7.23069 z m 3.25299,-1.65049 3.66856,7.23075 2.92599,-1.48457 -3.66858,-7.23068 z m 3.25232,-1.65003 3.66857,7.23067 2.92659,-1.48487 -3.66858,-7.23067 z m 3.25293,-1.65049 3.66857,7.23076 2.92598,-1.48458 -3.66856,-7.23069 z m 3.25232,-1.65011 3.66857,7.23076 2.92658,-1.48488 -3.66857,-7.23068 z m 3.25295,-1.65042 3.66854,7.23069 2.17133,-1.10158 -3.66854,-7.23072 z m 5.31862,-2.69842 3.66857,7.23072 2.17191,-1.10193 -3.66854,-7.23075 z m 2.49827,-1.26758 3.66857,7.23076 2.92599,-1.48456 -3.66857,-7.23069 z m 3.25233,-1.65003 3.66857,7.23068 2.92666,-1.48479 -3.66865,-7.23076 z m 3.25293,-1.65048 3.66863,7.23075 2.92599,-1.48456 -3.66863,-7.23069 z m 3.25236,-1.65011 3.66854,7.23075 0.35613,-0.1807 c -0.0673,-2.34871 -0.21488,-4.76533 -0.44768,-7.25305 l -0.65028,-1.28173 z m 3.25232,-1.65003 0.22635,0.44613 c -0.0212,-0.17769 -0.035,-0.35499 -0.0552,-0.53305 z m -45.35501,25.0459 c -0.50969,0.81751 -1.00275,1.636 -1.48503,2.45585 l 2.16069,4.25871 2.172,-1.10192 z m -1.70511,2.83091 c -0.66973,1.14904 -1.31209,2.30042 -1.92746,3.45415 l 1.05532,2.07991 2.92658,-1.48483 z m -22.95402,11.79995 c 0.0453,0.64997 0.0966,1.29138 0.1494,1.92445 l 3.20871,6.32433 2.32821,4.58887 -0.60545,1.85248 -2.92786,1.48543 c 0.0673,0.31803 0.13792,0.62896 0.20764,0.94058 l 3.14232,-1.59427 1.85247,0.60541 0.55158,1.08716 0.32644,-0.98636 -0.22033,-0.4346 0.60482,-1.85212 0.44767,-0.22673 0.41549,-1.25656 -1.28492,0.6519 -1.85182,-0.60572 z m 20.81662,-7.95086 c -0.54949,1.04111 -1.07692,2.08444 -1.58182,3.12943 l 2.52073,-1.27889 z m -17.17861,11.82903 3.42224,6.74526 1.66882,0.54541 1.06478,-0.54027 -3.98395,-7.85239 z m 2.49826,-1.26754 3.98396,7.85232 0.0242,-0.0114 0.33149,-1.00139 c 0.37423,-1.13926 0.75463,-2.22727 1.13785,-3.29275 l -2.5521,-5.03015 z m 3.25233,-1.6501 2.39691,4.72435 c 0.52295,-1.4347 1.05354,-2.80526 1.59161,-4.11622 l -1.06193,-2.093 z m 3.25292,-1.65041 0.91969,1.81263 c 0.4175,-1.00425 0.83832,-1.98271 1.26408,-2.92059 z m 6.09749,-3.09364 c -0.58737,1.25425 -1.14178,2.51108 -1.66435,3.77089 l 2.80321,5.52496 2.92658,-1.4848 -3.98402,-7.8524 z m 0.40794,-0.20673 3.98391,7.85232 2.92599,-1.4845 -3.98398,-7.85232 z m 3.25232,-1.65011 3.98395,7.85232 2.92656,-1.4848 -3.98393,-7.8524 z m 3.25293,-1.65042 3.98395,7.85233 1.06419,-0.53994 0.54602,-1.66912 -3.42224,-6.74522 z m 5.50693,-2.79401 3.42224,6.74522 1.66883,0.54544 1.06423,-0.54001 -3.98397,-7.85231 z m 2.49828,-1.26751 3.98401,7.85229 2.92592,-1.48453 -3.98395,-7.85232 z m 3.25233,-1.6501 3.98401,7.85231 2.92658,-1.48487 -3.98401,-7.85231 z m 3.25298,-1.65042 3.98396,7.85229 2.92597,-1.48453 -3.98397,-7.85233 z m 3.25236,-1.65011 3.98392,7.85232 2.92658,-1.48487 -3.98395,-7.85225 z m 3.25292,-1.6504 3.98396,7.85232 2.92595,-1.48458 -3.98392,-7.85224 z m 3.25232,-1.65013 3.98397,7.85233 2.92659,-1.48487 -3.98396,-7.85225 z m 3.25293,-1.6504 3.98396,7.85232 1.06422,-0.53993 0.54539,-1.66882 -3.42224,-6.74523 z m 5.3186,-2.6985 3.42226,6.74531 1.66883,0.54536 1.06482,-0.54024 -3.98397,-7.85232 z m 2.4983,-1.2675 3.98396,7.85232 2.92597,-1.4845 -3.98395,-7.85231 z m 3.25235,-1.65011 3.98393,7.85232 2.29069,-1.16217 c 0.035,-0.45572 0.071,-0.91408 0.10175,-1.37569 l -3.44971,-6.79925 z m 3.25293,-1.65042 3.16903,6.24606 c 0.13188,-2.24331 0.1862,-4.55644 0.15784,-6.9405 l -0.40089,-0.79005 z m 3.25232,-1.6501 0.0634,0.12487 c -9.1e-4,-0.0513 -0.002,-0.1038 -0.002,-0.15543 z m -70.19928,36.1752 c 0.29968,2.66848 0.65995,5.17601 1.08283,7.51714 l 0.50366,0.99274 1.06484,-0.54023 0.54543,-1.66882 z m 16.33996,-5.57558 c -0.56424,1.38124 -1.08583,2.76625 -1.57137,4.15436 l 1.30856,2.57909 2.92592,-1.48449 z m -1.73627,4.63818 c -0.35813,1.0439 -0.69961,2.08931 -1.0128,3.13706 -0.0403,0.095 -0.0694,0.17996 -0.10711,0.27427 l 2.26706,-1.15025 z m -12.44203,13.54201 c 0.66668,2.72075 1.42753,5.19055 2.28731,7.3984 l 1.0099,-3.05191 -2.42877,-4.78714 z m 1.19481,-0.60618 2.26447,4.46322 1.07782,-3.25835 -0.60838,-1.19914 -1.66911,-0.54603 z m 8.06307,-4.0909 c -0.0151,0.034 -0.0301,0.0759 -0.0403,0.11201 l 3.94737,7.78027 2.92597,-1.48453 -3.98428,-7.85296 z m 3.17461,-1.61069 3.98425,7.85299 2.92656,-1.48487 -3.98423,-7.85293 z m 3.25293,-1.65041 3.98425,7.85299 2.92598,-1.48457 -3.98425,-7.85293 z m 3.25231,-1.65012 3.98432,7.853 2.92659,-1.48488 -3.98432,-7.85292 z m 3.25294,-1.65041 3.98432,7.853 2.92598,-1.48453 -3.98432,-7.85296 z m 3.25235,-1.65011 3.98428,7.853 2.92659,-1.48483 -3.98431,-7.85296 z m 3.25296,-1.65042 3.98426,7.85301 2.17192,-1.102 -3.42223,-6.74519 -1.66973,-0.54573 z m 6.61402,-3.35566 -0.54506,1.66942 3.42224,6.74519 2.17133,-1.10162 -3.9843,-7.853 z m 1.39122,-0.70589 3.98426,7.85297 2.92594,-1.48451 -3.98422,-7.85299 z m 3.25232,-1.65011 3.98429,7.85296 2.92659,-1.48479 -3.98428,-7.85301 z m 3.25293,-1.65041 3.98432,7.85296 2.92595,-1.48449 -3.98429,-7.85301 z m 3.25233,-1.65011 3.98431,7.85296 2.9266,-1.48479 -3.98432,-7.853 z m 3.25298,-1.65041 3.98426,7.85295 2.92598,-1.48448 -3.98431,-7.853 z m 3.25229,-1.65011 3.9843,7.85297 2.92659,-1.48481 -3.98426,-7.85299 z m 3.253,-1.65038 3.98422,7.85294 2.17133,-1.10163 -3.42223,-6.74527 -1.66914,-0.54596 z m 6.42567,-3.26016 -0.5451,1.66944 3.16019,6.22865 c 0.31791,-1.18923 0.61616,-2.39825 0.88577,-3.63692 L 263.71659,212.43 Z m 1.39122,-0.70584 2.22821,4.39178 c 0.3667,-1.74496 0.68368,-3.53962 0.94691,-5.38523 l -0.24898,-0.49096 z m 3.25232,-1.65009 0.0151,0.0301 c 9.1e-4,-0.0151 0.002,-0.0265 0.007,-0.0404 z m -58.24168,30.02244 c -0.39637,1.11732 -0.7591,2.18865 -1.09489,3.22473 l 2.71641,5.35407 2.17194,-1.10195 z m -1.73259,5.2601 c -0.10506,0.34745 -0.20614,0.68976 -0.30483,1.0293 l 3.33487,6.57297 c 0.26618,-0.0189 0.53633,-0.034 0.79932,-0.0543 l -3.51027,-6.91861 z m -0.89612,3.15754 c -0.23994,0.90737 -0.45221,1.78442 -0.65123,2.64795 l 1.58637,-0.80484 z m -0.84934,3.53479 c -0.009,0.0404 -0.0211,0.0811 -0.0242,0.12073 l 1.58667,3.12736 c 0.10928,-0.75134 0.22123,-1.48306 0.33399,-2.18068 0.42655,-0.0151 0.84194,-0.0404 1.25998,-0.06 l -1.05213,-2.07377 z m 5.41683,-2.74829 1.75734,3.46364 c 0.88103,-0.0841 1.74246,-0.17845 2.58795,-0.28219 l -2.17333,-4.28356 z m 2.49834,-1.2675 2.23257,4.40045 c 1.17522,-0.14827 2.31795,-0.31237 3.43124,-0.48893 l -2.73785,-5.39624 z m 3.25231,-1.65011 2.79147,5.50195 c 1.16052,-0.18749 2.276,-0.38932 3.37824,-0.5947 l -3.24312,-6.39212 z m 3.25293,-1.65042 3.29171,6.4878 c 1.0121,-0.19052 2.00424,-0.38178 2.97493,-0.57607 l 0.32746,-0.16599 -3.66827,-7.23007 z m 3.25232,-1.65011 3.66827,7.23009 2.92658,-1.48488 -3.66825,-7.23007 z m 3.25293,-1.6504 3.66827,7.23007 2.92598,-1.48449 -3.66826,-7.23011 z m 3.25235,-1.65011 3.66827,7.23008 2.92656,-1.48481 -3.66821,-7.23011 z m 3.25298,-1.65041 3.66825,7.23008 2.17192,-1.10197 -3.66827,-7.23008 z m 5.50696,-2.79403 3.66823,7.23009 2.17133,-1.10167 -3.66824,-7.23008 z m 2.49826,-1.2675 3.66827,7.23001 2.92599,-1.4845 -3.66827,-7.23008 z m 3.25232,-1.6501 3.66827,7.23004 2.9266,-1.48484 -3.66827,-7.23007 z m 3.25293,-1.65042 3.66827,7.23004 2.92599,-1.48453 -3.66827,-7.23007 z m 3.25232,-1.65018 3.66828,7.23011 2.1372,-1.08427 c 0.21669,-0.22371 0.43308,-0.4507 0.64654,-0.68215 l -3.52535,-6.94849 z m 3.253,-1.65034 3.46198,6.8235 c 0.78011,-0.86228 1.53942,-1.77779 2.28194,-2.75383 l -2.81793,-5.55424 z m 3.25229,-1.65019 2.7379,5.39636 c 0.71956,-0.96369 1.42431,-1.98749 2.11827,-3.0781 l -1.92955,-3.80305 z m 3.25299,-1.6504 1.83082,3.60858 c 0.44164,-0.70607 0.88008,-1.43726 1.31477,-2.20147 0.0403,-0.11771 0.0776,-0.23955 0.11709,-0.35726 l -1.0916,-2.15144 z m -55.10449,28.56282 c -0.38783,1.84613 -0.69044,3.62178 -0.94661,5.38741 l 1.44416,2.84639 0.57499,-0.29162 c 0.15604,-1.70821 0.34455,-3.28136 0.54913,-4.74567 z m -1.03646,6.01766 c -0.14698,1.06075 -0.28158,2.12439 -0.40291,3.19891 l 1.61127,-0.81746 z m -0.49244,4.03055 c -0.0658,0.61175 -0.13068,1.24674 -0.19255,1.87219 l 2.3853,4.70127 c 0.015,-2.46355 0.10505,-4.70545 0.25109,-6.75801 l -0.42604,-0.83922 z m 2.3435,-1.189 0.15543,0.30595 c 0.009,-0.13392 0.0212,-0.2686 0.0301,-0.40086 z m 22.58042,-11.45646 c 0.51174,-0.103 1.02933,-0.20674 1.53229,-0.30595 l -0.19014,-0.37462 z m 1.66845,-0.84647 0.23782,0.46929 c 0.76417,-0.14939 1.52442,-0.29764 2.27219,-0.43309 0.33349,-0.14373 0.64617,-0.28105 0.97296,-0.42252 l -0.5572,-1.09842 z m 3.25233,-1.65012 0.56702,1.11773 c 1.0339,-0.44867 2.03702,-0.89115 3.00769,-1.32515 l -0.64812,-1.27738 z m 3.25292,-1.65041 0.65664,1.29421 c 0.75782,-0.34066 1.49483,-0.67891 2.21614,-1.01489 l -0.70079,-1.38128 z m 5.50695,-2.79402 0.73426,1.44715 c 0.73821,-0.37386 1.45674,-0.74938 2.15678,-1.13025 l -0.71972,-1.41849 z m 2.49834,-1.26751 0.71402,1.4074 c 0.98041,-0.54001 1.92536,-1.09102 2.83704,-1.65992 l -0.62509,-1.23196 z m 3.25234,-1.6501 0.60965,1.20155 c 0.94427,-0.59833 1.854,-1.21837 2.73291,-1.86646 l -0.41599,-0.81996 z m 3.25293,-1.65041 0.38831,0.76523 c 0.89697,-0.67348 1.76297,-1.37879 2.60117,-2.12485 l -0.0634,-0.12488 z m 3.25232,-1.65012 0.0211,0.034 c 0.035,-0.034 0.0739,-0.0695 0.1111,-0.103 z m -51.11894,28.35647 c -0.18651,1.91396 -0.38026,3.94238 -0.5883,6.09194 l 0.66955,1.31974 2.37836,-1.20667 c -0.007,-0.4678 -0.007,-0.91975 -0.009,-1.37253 z m -0.65416,6.771 c -0.035,0.36368 -0.0655,0.69336 -0.10323,1.06612 l 0.51222,-0.25993 z m -0.12374,2.72653 c 0.002,0.26671 0.002,0.53577 0.009,0.80144 l 3.28715,-1.66777 c -0.009,-0.26671 -0.0151,-0.53223 -0.0242,-0.7942 z m 0.0845,2.41394 c 0.0453,0.79732 0.0996,1.59076 0.17293,2.37658 l 2.98958,5.89234 1.62431,-0.82407 c -0.4507,-1.4455 -0.86492,-2.93935 -1.22044,-4.45599 -0.035,-0.46628 -0.0655,-0.91367 -0.0966,-1.36792 l -1.36437,-2.68917 z m 2.43177,-1.23378 0.97142,1.91461 c -0.0504,-0.79994 -0.093,-1.58022 -0.12765,-2.3426 z m -2.14587,4.64125 c 0.22122,1.99205 0.53691,3.94276 0.94054,5.84393 l 1.61,-0.81684 z m 1.09189,6.5535 c 0.52025,2.30967 1.1733,4.53939 1.94235,6.67843 l 0.5762,1.13572 2.92599,-1.48457 -3.66858,-7.23064 z m 2.10231,-1.06671 3.66856,7.23075 0.80003,-0.40593 c -1.00034,-2.17935 -2.03555,-4.78403 -2.9444,-7.59809 z m 0.73316,9.50559 3.533,6.9634 2.28824,-2.74147 -2.89526,-5.7065 z m 3.25233,-1.6501 2.82433,5.5666 0.80455,-0.96395 c -0.73852,-0.93789 -1.7618,-2.7039 -2.84872,-4.99848 z m -2.51487,3.91238 c 0.57825,1.26789 1.20028,2.49305 1.86363,3.67318 z"
         style="fill:url(#linearGradient1860);fill-opacity:1;stroke:#245785;stroke-width:0.0457805;stroke-opacity:1"
         inkscape:export-xdpi="400"
         inkscape:export-ydpi="400" />
      <text
         xml:space="preserve"
         style="font-style:normal;font-variant:normal;font-weight:normal;font-stretch:normal;font-size:108.621px;line-height:1.25;font-family:Quicksand;-inkscape-font-specification:'Quicksand, Normal';font-variant-ligatures:normal;font-variant-caps:normal;font-variant-numeric:normal;font-variant-east-asian:normal;fill:#2e3440;fill-opacity:1;stroke:none;stroke-width:1.25332"
         x="128.45824"
         y="252.63576"
         id="text1856"><tspan
           sodipodi:role="line"
           id="tspan1854"
           style="font-style:normal;font-variant:normal;font-weight:normal;font-stretch:normal;font-size:108.621px;font-family:Quicksand;-inkscape-font-specification:'Quicksand, Normal';font-variant-ligatures:normal;font-variant-caps:normal;font-variant-numeric:normal;font-variant-east-asian:normal;fill:#2e3440;fill-opacity:1;stroke-width:1.25332"
           x="128.45824"
           y="252.63576">F </tspan></text>
    </g>
  </g>
</svg>
