<?xml version="1.0" encoding="UTF-8" standalone="no"?>
<!-- Creator: CorelDRAW -->

<svg
   xml:space="preserve"
   width="160.75052mm"
   height="135.46667mm"
   style="clip-rule:evenodd;fill-rule:evenodd;image-rendering:optimizeQuality;shape-rendering:geometricPrecision;text-rendering:geometricPrecision"
   viewBox="0 0 187.08598 157.65995"
   version="1.1"
   id="svg34"
   sodipodi:docname="unicamp_logo.svg"
   inkscape:version="1.2.2 (b0a8486541, 2022-12-01)"
   xmlns:inkscape="http://www.inkscape.org/namespaces/inkscape"
   xmlns:sodipodi="http://sodipodi.sourceforge.net/DTD/sodipodi-0.dtd"
   xmlns="http://www.w3.org/2000/svg"
   xmlns:svg="http://www.w3.org/2000/svg"><sodipodi:namedview
   id="namedview36"
   pagecolor="#ffffff"
   bordercolor="#999999"
   borderopacity="1"
   inkscape:showpageshadow="0"
   inkscape:pageopacity="0"
   inkscape:pagecheckerboard="0"
   inkscape:deskcolor="#d1d1d1"
   inkscape:document-units="mm"
   showgrid="false"
   inkscape:zoom="1.0703124"
   inkscape:cx="304.11681"
   inkscape:cy="256.00002"
   inkscape:window-width="1366"
   inkscape:window-height="768"
   inkscape:window-x="0"
   inkscape:window-y="0"
   inkscape:window-maximized="1"
   inkscape:current-layer="Camada_x0020_1" />
 <defs
   id="defs4">
  <style
   type="text/css"
   id="style2">
   <![CDATA[
    .fil0 {fill:#1F1A17}
    .fil1 {fill:#DA251D}
   ]]>
  </style>
 
   
   
   
   
   
   
   
   
   
   
   
   
   
   
   
   
   
   
   
   
   
  </defs>
 <g
   id="Camada_x0020_1"
   inkscape:label="Camada 1"
   inkscape:groupmode="layer"
   transform="translate(-60.160794,-154.35622)">
  <metadata
   id="CorelCorpID_0Corel-Layer" />
  
 <g
   id="g4550"
   transform="matrix(1.5109208,0,0,1.5109208,-30.737397,-78.863792)"><g
     id="g925"
     transform="translate(60.161427,154.35625)"
     style="fill:#bf616a;fill-opacity:1">
    <ellipse
   id="ellipse919"
   class="fil1"
   cx="68.687202"
   cy="99.552002"
   rx="4.7751002"
   ry="4.7948799"
   style="fill:#bf616a;fill-opacity:1" />
    <circle
   id="circle921"
   class="fil1"
   cx="119.027"
   cy="63.834202"
   r="4.7948699"
   style="fill:#bf616a;fill-opacity:1" />
    <circle
   id="circle923"
   class="fil1"
   cx="79.737396"
   cy="4.7948298"
   r="4.7948699"
   style="fill:#bf616a;fill-opacity:1" />
   </g><path
     id="path897"
     class="fil0"
     d="m 116.92993,200.08395 v -44.5215 c 5.15158,0.11894 10.2834,0.85204 15.2764,2.21919 -0.51523,3.05133 0.79245,6.10255 3.32867,7.86598 l -14.7414,35.2487 c -1.26811,-0.41607 -2.55601,-0.67363 -3.86369,-0.81235 z"
     style="fill:#2e3440;fill-opacity:1" /><path
     id="path899"
     class="fil0"
     d="m 113.04303,200.08395 v -44.4621 c -7.01406,0.3566 -13.869603,2.08046 -20.229803,5.07232 l 16.485103,40.1624 c 1.20864,-0.39617 2.45685,-0.65384 3.74474,-0.77267 z"
     style="fill:#2e3440;fill-opacity:1" /><path
     id="path901"
     class="fil0"
     d="m 106.31963,201.97485 -16.405703,-39.9445 c -6.30086,3.22975 -11.9873,7.58876 -16.7426,12.8394 l 29.522403,29.5224 c 1.1096,-0.93118 2.31823,-1.74354 3.62592,-2.41728 z"
     style="fill:#2e3440;fill-opacity:1" /><path
     id="path903"
     class="fil0"
     d="m 71.127127,177.28755 c -4.33923,5.15158 -7.62821,11.1155 -9.66911,17.5154 l 36.6951,15.3557 c 0.633939,-1.24833 1.42651,-2.43718 2.338023,-3.50709 l -29.364003,-29.364 z"
     style="fill:#2e3440;fill-opacity:1" /><path
     id="path905"
     class="fil0"
     d="m 96.864927,213.11055 -36.1798,-15.1377 c -0.832255,6.45926 -0.673742,12.9978 0.475425,19.3976 h 34.8524 c 0.118827,-1.44629 0.41607,-2.87292 0.851924,-4.25985 z"
     style="fill:#2e3440;fill-opacity:1" /><path
     id="path907"
     class="fil0"
     d="m 96.024527,220.56915 h -33.9607 c 2.06056,5.34978 4.73551,10.4221 7.94536,15.1575 l 26.8277,-11.0164 c -0.41607,-1.34737 -0.69341,-2.7343 -0.812354,-4.14114 z"
     style="fill:#2e3440;fill-opacity:1" /><path
     id="path909"
     class="fil0"
     d="m 100.54183,231.07435 c -0.951086,-1.10948 -1.763443,-2.31812 -2.417283,-3.62592 l -25.8965,10.6202 c 3.60601,3.58634 7.58864,6.73672 11.8684,9.45124 l 16.445403,-16.4455 z"
     style="fill:#2e3440;fill-opacity:1" /><path
     id="path911"
     class="fil0"
     d="m 121.13213,254.81625 c -0.3765,-3.07112 1.03022,-6.06309 3.6457,-7.72737 l -4.10146,-10.1446 c -6.20171,1.92195 -12.9582,0.5548 -17.9116,-3.6457 l -15.851003,15.8509 c 10.4815,5.56777 22.508403,7.56886 34.218403,5.66681 z"
     style="fill:#2e3440;fill-opacity:1" /><path
     id="path913"
     class="fil0"
     d="m 123.44323,235.80175 4.12124,10.2239 c 3.19006,-0.5349 6.36022,0.91151 8.06418,3.64582 1.76344,-0.83226 3.50697,-1.70408 5.23084,-2.61548 l -13.6913,-13.7111 c -1.14917,0.97087 -2.39749,1.80301 -3.72496,2.45685 z"
     style="fill:#2e3440;fill-opacity:1" /><path
     id="path915"
     class="fil0"
     d="m 172.71243,224.56125 c -1.14917,-1.12938 -1.94174,-2.57579 -2.25876,-4.18071 h -36.6357 c -0.31703,3.94294 -1.88226,7.68768 -4.41848,10.6994 l 14.365,14.3649 c 10.4418,-5.78564 20.1506,-12.7997 28.9478,-20.8837 z"
     style="fill:#2e3440;fill-opacity:1" /><path
     id="path917"
     class="fil0"
     d="m 152.01733,169.30365 c 1.72387,1.72375 3.32879,3.54666 4.83455,5.46849 l -29.7205,29.7206 c -1.08981,-0.9114 -2.25876,-1.68406 -3.50709,-2.33802 l 14.7414,-35.2486 c 2.7343,0.5548 5.56765,-0.39628 7.44991,-2.47675 2.17951,1.46619 4.25997,3.1108 6.20171,4.87424 z"
     style="fill:#2e3440;fill-opacity:1" /><path
     id="path941"
     class="fil0"
     d="m 167.98543,195.46175 c -1.78322,-4.2204 -3.74486,-8.36143 -5.88468,-12.4233 -1.08981,-1.92195 -2.23898,-3.80421 -3.44762,-5.64691 l -29.3044,29.3046 c 0.93118,1.12938 1.74354,2.33802 2.39738,3.62592 l 36.2394,-14.8603 z"
     style="fill:#2e3440;fill-opacity:1" /><path
     id="path943"
     class="fil0"
     d="m 169.24643,198.40315 c 1.76332,4.57688 3.36824,9.23314 4.7553,13.9489 -1.78334,1.12938 -3.05133,2.95217 -3.50709,5.03264 h -36.6554 c -0.11883,-1.40672 -0.37639,-2.79366 -0.81236,-4.14103 l 36.21961,-14.8405 z"
     style="fill:#2e3440;fill-opacity:1" /></g></g>
</svg>
